<?xml version="1.0" encoding="utf-8"?>
<!-- Generator: Adobe Illustrator 15.1.0, SVG Export Plug-In . SVG Version: 6.00 Build 0)  -->
<!DOCTYPE svg PUBLIC "-//W3C//DTD SVG 1.0//EN" "http://www.w3.org/TR/2001/REC-SVG-20010904/DTD/svg10.dtd">
<svg version="1.0" id="Шар_1" xmlns="http://www.w3.org/2000/svg" xmlns:xlink="http://www.w3.org/1999/xlink" x="0px" y="0px"
	 width="269px" height="141.772px" viewBox="0 0 269 141.772" enable-background="new 0 0 269 141.772" xml:space="preserve">
<g id="settings">
	<g>
		<path fill-rule="evenodd" clip-rule="evenodd" fill="#F4B714" d="M35.392,92.679l-3.065-0.615
			c-0.154-0.442-0.335-0.873-0.536-1.288l1.735-2.604c0.529-0.793,0.424-1.851-0.25-2.524l-1.924-1.924
			c-0.387-0.386-0.898-0.585-1.415-0.585c-0.384,0-0.771,0.109-1.108,0.336l-2.604,1.735c-0.417-0.202-0.847-0.382-1.29-0.537
			l-0.613-3.064C24.135,80.672,23.313,80,22.36,80H19.64c-0.953,0-1.774,0.672-1.961,1.608l-0.614,3.064
			c-0.443,0.155-0.873,0.336-1.289,0.537l-2.604-1.735c-0.339-0.227-0.725-0.336-1.108-0.336c-0.517,0-1.028,0.199-1.415,0.585
			l-1.924,1.924c-0.674,0.674-0.779,1.731-0.25,2.524l1.735,2.604c-0.202,0.416-0.382,0.846-0.536,1.29l-3.065,0.613
			C5.673,92.865,5,93.687,5,94.64v2.721c0,0.953,0.673,1.773,1.608,1.961l3.065,0.613c0.154,0.444,0.335,0.874,0.536,1.29
			l-1.735,2.604c-0.529,0.792-0.424,1.85,0.25,2.523l1.924,1.924c0.387,0.387,0.898,0.585,1.415,0.585
			c0.384,0,0.771-0.11,1.108-0.336l2.604-1.734c0.417,0.202,0.847,0.382,1.29,0.535l0.613,3.065
			c0.187,0.936,1.008,1.609,1.961,1.609h2.721c0.953,0,1.774-0.674,1.961-1.609l0.614-3.065c0.443-0.153,0.873-0.334,1.289-0.535
			l2.604,1.734c0.339,0.226,0.725,0.336,1.108,0.336c0.517,0,1.028-0.198,1.415-0.585l1.924-1.924
			c0.674-0.674,0.779-1.731,0.25-2.523l-1.735-2.604c0.202-0.417,0.382-0.848,0.536-1.291l3.065-0.612
			C36.327,99.134,37,98.313,37,97.36V94.64C37,93.687,36.327,92.865,35.392,92.679z M31.934,97.973
			c-0.694,0.139-1.264,0.636-1.496,1.304c-0.129,0.369-0.278,0.728-0.447,1.075c-0.31,0.639-0.258,1.392,0.136,1.982l1.735,2.604
			l-1.924,1.924l-2.604-1.735c-0.334-0.223-0.721-0.337-1.109-0.337c-0.297,0-0.595,0.067-0.871,0.2
			c-0.347,0.167-0.705,0.319-1.075,0.447c-0.669,0.233-1.165,0.802-1.304,1.497L22.36,110H19.64l-0.613-3.066
			c-0.139-0.695-0.635-1.264-1.304-1.497c-0.369-0.128-0.728-0.278-1.075-0.446c-0.276-0.134-0.574-0.201-0.872-0.201
			c-0.389,0-0.775,0.114-1.109,0.337l-2.604,1.735l-1.924-1.924l1.735-2.604c0.393-0.591,0.444-1.343,0.137-1.98
			c-0.168-0.348-0.319-0.705-0.448-1.075c-0.232-0.67-0.802-1.166-1.496-1.305L7.001,97.36L7,94.64l3.066-0.614
			c0.694-0.139,1.264-0.634,1.496-1.303c0.129-0.37,0.278-0.728,0.447-1.076c0.31-0.638,0.258-1.391-0.136-1.98l-1.735-2.604
			l1.924-1.925l2.604,1.736c0.334,0.223,0.721,0.335,1.109,0.335c0.297,0,0.595-0.066,0.871-0.198
			c0.347-0.169,0.705-0.319,1.075-0.448c0.669-0.233,1.165-0.803,1.304-1.496l0.614-3.065L22.36,82l0.613,3.066
			c0.139,0.693,0.635,1.263,1.304,1.496c0.369,0.129,0.728,0.277,1.075,0.446c0.276,0.134,0.574,0.2,0.872,0.2
			c0.389,0,0.775-0.112,1.109-0.335l2.604-1.736l1.924,1.925l-1.735,2.604c-0.393,0.59-0.444,1.342-0.137,1.979
			c0.168,0.348,0.319,0.705,0.448,1.075c0.232,0.669,0.802,1.166,1.496,1.304l3.065,0.615L35,97.36L31.934,97.973z M21,89
			c-3.865,0-7,3.135-7,7s3.135,7,7,7s7-3.135,7-7S24.865,89,21,89z M21,102.125c-3.382,0-6.125-2.744-6.125-6.125
			c0-3.383,2.743-6.125,6.125-6.125s6.125,2.742,6.125,6.125C27.125,99.381,24.382,102.125,21,102.125z M21,92c-2.21,0-4,1.789-4,4
			c0,2.209,1.79,4,4,4s4-1.791,4-4C25,93.789,23.21,92,21,92z M21,99c-1.656,0-3-1.344-3-3c0-1.657,1.344-3,3-3s3,1.343,3,3
			C24,97.656,22.656,99,21,99z"/>
	</g>
</g>
<g id="params">
	<g>
		<path fill-rule="evenodd" clip-rule="evenodd" fill="#F4B714" d="M53,84.021V81c0-1.654-1.346-3-3-3s-3,1.346-3,3v3.021
			c-1.208,0.914-2,2.348-2,3.979s0.792,3.063,2,3.977v15.022c0,1.654,1.346,3.001,3,3.001s3-1.347,3-3.001V91.977
			c1.208-0.913,2-2.346,2-3.977S54.208,84.936,53,84.021z M49,81c0-0.553,0.447-1,1-1s1,0.447,1,1v2.1c-0.323-0.065-0.657-0.1-1-0.1
			s-0.677,0.034-1,0.1V81z M51,106.999c0,0.554-0.447,1.001-1,1.001s-1-0.447-1-1.001V92.897C49.323,92.965,49.657,93,50,93
			s0.677-0.035,1-0.103V106.999z M52.865,88.84c-0.016,0.052-0.03,0.104-0.049,0.157c-0.095,0.264-0.217,0.515-0.378,0.737
			c-0.004,0.006-0.01,0.01-0.014,0.016c-0.174,0.238-0.381,0.449-0.616,0.626c-0.004,0.005-0.007,0.007-0.01,0.009
			c-0.241,0.182-0.51,0.327-0.799,0.43C50.686,90.928,50.353,91,50,91s-0.686-0.072-1-0.186c-0.289-0.103-0.558-0.248-0.799-0.43
			c-0.003-0.002-0.006-0.004-0.01-0.009c-0.235-0.177-0.442-0.388-0.616-0.626c-0.004-0.006-0.01-0.01-0.014-0.016
			c-0.161-0.223-0.283-0.474-0.378-0.737c-0.019-0.053-0.033-0.105-0.049-0.157C47.055,88.572,47,88.292,47,88
			c0-0.295,0.055-0.574,0.135-0.842c0.016-0.053,0.03-0.105,0.049-0.156c0.095-0.264,0.217-0.515,0.378-0.739
			c0.004-0.006,0.01-0.009,0.014-0.016c0.174-0.235,0.381-0.448,0.616-0.627c0.004-0.002,0.007-0.006,0.01-0.007
			c0.241-0.18,0.51-0.326,0.799-0.43C49.314,85.071,49.647,85,50,85s0.686,0.071,1,0.184c0.289,0.104,0.558,0.25,0.799,0.43
			c0.003,0.001,0.006,0.005,0.01,0.007c0.235,0.179,0.442,0.392,0.616,0.627c0.004,0.007,0.01,0.01,0.014,0.016
			c0.161,0.225,0.283,0.476,0.378,0.739c0.019,0.051,0.033,0.104,0.049,0.156C52.945,87.426,53,87.705,53,88
			C53,88.292,52.945,88.572,52.865,88.84z M75,84.021V81c0-1.654-1.346-3-3-3s-3,1.346-3,3v3.021c-1.208,0.914-2,2.348-2,3.979
			s0.792,3.063,2,3.977v15.022c0,1.654,1.346,3.001,3,3.001s3-1.347,3-3.001V91.977c1.208-0.913,2-2.346,2-3.977
			S76.208,84.936,75,84.021z M71,81c0-0.553,0.447-1,1-1s1,0.447,1,1v2.1c-0.323-0.065-0.657-0.1-1-0.1s-0.677,0.034-1,0.1V81z
			 M73,106.999c0,0.554-0.447,1.001-1,1.001s-1-0.447-1-1.001V92.897C71.323,92.965,71.657,93,72,93s0.677-0.035,1-0.103V106.999z
			 M74.865,88.84c-0.016,0.052-0.03,0.104-0.049,0.157c-0.095,0.264-0.217,0.515-0.378,0.737c-0.004,0.006-0.01,0.01-0.014,0.016
			c-0.174,0.238-0.381,0.449-0.616,0.626c-0.004,0.005-0.007,0.007-0.01,0.009c-0.241,0.182-0.51,0.327-0.799,0.43
			C72.686,90.928,72.353,91,72,91s-0.686-0.072-1-0.186c-0.289-0.103-0.558-0.248-0.799-0.43c-0.003-0.002-0.006-0.004-0.01-0.009
			c-0.235-0.177-0.442-0.388-0.616-0.626c-0.004-0.006-0.01-0.01-0.014-0.016c-0.161-0.223-0.283-0.474-0.378-0.737
			c-0.019-0.053-0.033-0.105-0.049-0.157C69.055,88.572,69,88.292,69,88c0-0.295,0.055-0.574,0.135-0.842
			c0.016-0.053,0.03-0.105,0.049-0.156c0.095-0.264,0.217-0.515,0.378-0.739c0.004-0.006,0.01-0.009,0.014-0.016
			c0.174-0.235,0.381-0.448,0.616-0.627c0.004-0.002,0.007-0.006,0.01-0.007c0.241-0.18,0.51-0.326,0.799-0.43
			C71.314,85.071,71.647,85,72,85s0.686,0.071,1,0.184c0.289,0.104,0.558,0.25,0.799,0.43c0.003,0.001,0.006,0.005,0.01,0.007
			c0.235,0.179,0.442,0.392,0.616,0.627c0.004,0.007,0.01,0.01,0.014,0.016c0.161,0.225,0.283,0.476,0.378,0.739
			c0.019,0.051,0.033,0.104,0.049,0.156C74.945,87.426,75,87.705,75,88C75,88.292,74.945,88.572,74.865,88.84z M64,96.021V81
			c0-1.654-1.346-3-3-3s-3,1.346-3,3v15.021c-1.208,0.913-2,2.348-2,3.978c0,1.632,0.792,3.065,2,3.978v3.022
			c0,1.654,1.346,3.001,3,3.001s3-1.347,3-3.001v-3.022c1.208-0.912,2-2.346,2-3.978C66,98.369,65.208,96.935,64,96.021z M60,81
			c0-0.553,0.447-1,1-1s1,0.447,1,1v14.1c-0.323-0.064-0.657-0.1-1-0.1s-0.677,0.035-1,0.1V81z M62,106.999
			c0,0.554-0.447,1.001-1,1.001s-1-0.447-1-1.001v-2.101c0.323,0.065,0.657,0.102,1,0.102s0.677-0.036,1-0.102V106.999z
			 M63.865,100.84c-0.016,0.053-0.03,0.105-0.049,0.158c-0.095,0.264-0.217,0.513-0.378,0.736c-0.004,0.006-0.01,0.01-0.014,0.015
			c-0.174,0.239-0.381,0.45-0.616,0.628c-0.004,0.004-0.007,0.006-0.01,0.008c-0.241,0.181-0.51,0.327-0.799,0.43
			c-0.314,0.112-0.647,0.186-1,0.186s-0.686-0.073-1-0.186c-0.289-0.103-0.558-0.249-0.799-0.43
			c-0.003-0.002-0.006-0.004-0.01-0.008c-0.235-0.178-0.442-0.389-0.616-0.628c-0.004-0.005-0.01-0.009-0.014-0.015
			c-0.161-0.224-0.283-0.473-0.378-0.736c-0.019-0.053-0.033-0.105-0.049-0.158c-0.08-0.268-0.135-0.547-0.135-0.841
			s0.055-0.573,0.135-0.842c0.016-0.052,0.03-0.105,0.049-0.155c0.095-0.264,0.217-0.514,0.378-0.738
			c0.004-0.007,0.01-0.011,0.014-0.016c0.174-0.236,0.381-0.449,0.616-0.627c0.004-0.003,0.007-0.006,0.01-0.009
			c0.241-0.18,0.51-0.325,0.799-0.429C60.314,97.071,60.647,97,61,97s0.686,0.071,1,0.184c0.289,0.104,0.558,0.249,0.799,0.429
			c0.003,0.003,0.006,0.006,0.01,0.009c0.235,0.178,0.442,0.391,0.616,0.627c0.004,0.005,0.01,0.009,0.014,0.016
			c0.161,0.225,0.283,0.475,0.378,0.738c0.019,0.05,0.033,0.104,0.049,0.155C63.945,99.426,64,99.705,64,99.999
			S63.945,100.572,63.865,100.84z"/>
	</g>
</g>
<g id="truck">
	<g>
		<path fill-rule="evenodd" clip-rule="evenodd" fill="#F4B714" d="M109.832,91.445C109.646,91.166,109.334,91,109,91h-1
			c-0.553,0-1,0.447-1,1v6c0,0.553,0.447,1,1,1h4c0.553,0,1-0.447,1-1v-1.5c0-0.198-0.059-0.392-0.168-0.556L109.832,91.445z
			 M112,98h-4v-6h1l3,4.5V98z M116.496,95.336l-4-6C111.938,88.498,111.004,88,110,88h-4v-2c0-1.654-1.346-3-3-3H87.999
			C86.346,83,85,84.346,85,86v11c0,1.654,1.346,2.999,2.999,2.999H88V103c0,1.653,1.346,3,3,3h1.142
			c0.446,1.72,1.999,2.999,3.858,2.999c1.857,0,3.41-1.279,3.857-2.999h5.283c0.447,1.72,2,2.999,3.859,2.999
			c1.857,0,3.41-1.279,3.857-2.999H114c1.654,0,3-1.347,3-3v-6C117,96.406,116.826,95.829,116.496,95.336z M87.999,98
			c-0.552,0-1-0.447-1-1V86c0-0.553,0.448-1,1-1H103c0.553,0,1,0.447,1,1v11c0,0.553-0.447,1-1,1H87.999z M96,107
			c-1.105,0-2-0.896-2-2c0-1.105,0.895-2,2-2c1.104,0,2,0.895,2,2C98,106.104,97.104,107,96,107z M109,107c-1.105,0-2-0.896-2-2
			c0-1.105,0.895-2,2-2c1.104,0,2,0.895,2,2C111,106.104,110.104,107,109,107z M115,103c0,0.553-0.447,1-1,1h-1.143
			c-0.447-1.721-2-3-3.857-3c-1.859,0-3.412,1.279-3.859,3h-5.283c-0.447-1.721-2-3-3.857-3c-1.859,0-3.412,1.279-3.858,3H91
			c-0.553,0-1-0.447-1-1v-3.001h13c1.654,0,3-1.345,3-2.999v-7h4c0.334,0,0.646,0.167,0.832,0.444l4,6.001
			C114.941,96.609,115,96.803,115,97V103z"/>
	</g>
</g>
<g id="Shape_1_copy_3">
	<g>
		<polygon fill-rule="evenodd" clip-rule="evenodd" fill="#999FB3" points="134.23,94.5 133.337,95.406 136.247,98.358 
			128.672,98.358 128.672,99.641 136.25,99.641 133.337,102.592 134.229,103.499 138.67,99.002 		"/>
	</g>
</g>
<g id="Shape_1_copy_4">
	<g>
		<polygon fill-rule="evenodd" clip-rule="evenodd" fill="#4184C5" points="153.56,94.5 152.666,95.406 155.576,98.358 
			148.001,98.358 148.001,99.641 155.579,99.641 152.666,102.592 153.559,103.499 157.999,99.002 		"/>
	</g>
</g>
<g id="Rectangle_15">
	<g>
		<rect x="182.5" y="81.5" fill-rule="evenodd" clip-rule="evenodd" fill="#FFFFFF" width="3" height="35"/>
	</g>
</g>
<g id="Rectangle_15_copy">
	<g>
		<rect x="166.5" y="97.5" fill-rule="evenodd" clip-rule="evenodd" fill="#FFFFFF" width="35" height="3"/>
	</g>
</g>
<g id="location_1_">
	<g>
		<path fill-rule="evenodd" clip-rule="evenodd" fill="#FFFFFF" d="M21,124.772c-3.314,0-6,2.687-6,6s6,10,6,10s6-6.687,6-10
			S24.313,124.772,21,124.772z M21,133.772c-1.657,0-3-1.343-3-3c0-1.656,1.343-3,3-3c1.656,0,3,1.344,3,3
			C24,132.43,22.656,133.772,21,133.772z"/>
	</g>
</g>
<g id="iPhone_potrait_1_">
	<g>
		<path fill-rule="evenodd" clip-rule="evenodd" fill="#FFFFFF" d="M46.708,125.772h-8c-0.553,0-1,0.448-1,1.001v13.999
			c0,0.553,0.447,1,1,1h8c0.552,0,1-0.447,1-1v-13.999C47.708,126.221,47.26,125.772,46.708,125.772z M42.708,140.772
			c-0.553,0-1-0.224-1-0.5s0.447-0.5,1-0.5c0.552,0,1,0.224,1,0.5S43.26,140.772,42.708,140.772z M46.708,138.772h-8v-11h8V138.772z
			"/>
	</g>
</g>
<g id="front_email_1_">
	<g>
		<path fill-rule="evenodd" clip-rule="evenodd" fill="#FFFFFF" d="M72.25,127.272h-14c-0.553,0-1,0.448-1,1.001v9.999
			c0,0.553,0.447,1,1,1h14c0.552,0,1-0.447,1-1v-9.999C73.25,127.721,72.802,127.272,72.25,127.272z M69.25,136.304h-8v-1h8V136.304
			z M69.25,134.304h-8v-1h8V134.304z M71.25,131.304h-2v-1.999h2V131.304z"/>
	</g>
</g>
<g opacity="0.1">
	<path fill="#2B2C2F" d="M126.25,33.104c0,10.501-1.921,18.556-5.76,24.165c-3.841,5.611-9.15,8.415-15.931,8.415
		s-12.091-2.804-15.93-8.415c-3.841-5.609-5.76-13.664-5.76-24.165c0-5.22,0.495-9.854,1.485-13.904
		c0.989-4.05,2.43-7.455,4.319-10.215c1.891-2.759,4.17-4.86,6.84-6.3c2.669-1.44,5.685-2.16,9.045-2.16
		c6.78,0,12.09,2.806,15.931,8.415C124.329,14.55,126.25,22.605,126.25,33.104z M115,33.104c0-3.24-0.18-6.269-0.54-9.089
		c-0.36-2.82-0.945-5.265-1.755-7.335c-0.811-2.07-1.876-3.704-3.195-4.905c-1.32-1.2-2.97-1.8-4.95-1.8
		c-1.979,0-3.645,0.6-4.994,1.8c-1.351,1.201-2.431,2.835-3.24,4.905c-0.811,2.07-1.381,4.515-1.71,7.335
		c-0.331,2.821-0.495,5.85-0.495,9.089c0,3.24,0.164,6.271,0.495,9.091c0.329,2.82,0.899,5.265,1.71,7.335
		c0.81,2.069,1.89,3.705,3.24,4.904c1.35,1.201,3.015,1.801,4.994,1.801c1.98,0,3.63-0.6,4.95-1.801
		c1.319-1.199,2.385-2.835,3.195-4.904c0.81-2.07,1.395-4.515,1.755-7.335S115,36.344,115,33.104z"/>
	<path fill="#2B2C2F" d="M168.909,18.164c0,2.16-0.45,4.275-1.35,6.345c-0.9,2.07-2.056,4.081-3.465,6.03
		c-1.411,1.95-3.016,3.841-4.815,5.67c-1.8,1.831-3.6,3.615-5.4,5.355c-0.96,0.899-2.04,1.979-3.239,3.239
		c-1.201,1.261-2.34,2.521-3.42,3.78s-2.012,2.475-2.79,3.645c-0.781,1.171-1.201,2.146-1.261,2.926h27.721v9.18h-39.69
		c-0.061-0.479-0.09-1.064-0.09-1.755c0-0.689,0-1.215,0-1.575c0-2.88,0.464-5.535,1.395-7.965c0.93-2.43,2.145-4.694,3.646-6.795
		c1.499-2.1,3.18-4.08,5.04-5.94c1.859-1.858,3.72-3.689,5.58-5.489c1.439-1.38,2.819-2.73,4.14-4.05
		c1.319-1.319,2.476-2.624,3.465-3.915c0.99-1.29,1.785-2.61,2.386-3.96c0.599-1.35,0.899-2.745,0.899-4.185
		c0-3.119-0.899-5.34-2.7-6.66c-1.8-1.319-3.99-1.98-6.569-1.98c-1.681,0-3.24,0.241-4.681,0.72c-1.439,0.481-2.715,1.05-3.824,1.71
		c-1.111,0.661-2.086,1.336-2.926,2.025c-0.841,0.69-1.471,1.246-1.89,1.665l-5.4-7.65c2.521-2.399,5.475-4.334,8.865-5.805
		c3.39-1.47,7.034-2.205,10.936-2.205c6.659,0,11.564,1.575,14.715,4.725C167.334,8.399,168.909,12.705,168.909,18.164z"/>
</g>
<g opacity="0.1">
	<path fill="#2B2C2F" d="M223.25,33.104c0,10.501-1.921,18.556-5.76,24.165c-3.841,5.611-9.15,8.415-15.931,8.415
		s-12.091-2.804-15.93-8.415c-3.841-5.609-5.76-13.664-5.76-24.165c0-5.22,0.495-9.854,1.485-13.904
		c0.989-4.05,2.43-7.455,4.319-10.215c1.891-2.759,4.17-4.86,6.84-6.3c2.669-1.44,5.685-2.16,9.045-2.16
		c6.78,0,12.09,2.806,15.931,8.415C221.329,14.55,223.25,22.605,223.25,33.104z M212,33.104c0-3.24-0.18-6.269-0.54-9.089
		c-0.36-2.82-0.945-5.265-1.755-7.335c-0.811-2.07-1.876-3.704-3.195-4.905c-1.32-1.2-2.97-1.8-4.95-1.8
		c-1.979,0-3.645,0.6-4.994,1.8c-1.351,1.201-2.431,2.835-3.24,4.905c-0.811,2.07-1.381,4.515-1.71,7.335
		c-0.331,2.821-0.495,5.85-0.495,9.089c0,3.24,0.164,6.271,0.495,9.091c0.329,2.82,0.899,5.265,1.71,7.335
		c0.81,2.069,1.89,3.705,3.24,4.904c1.35,1.201,3.015,1.801,4.994,1.801c1.98,0,3.63-0.6,4.95-1.801
		c1.319-1.199,2.385-2.835,3.195-4.904c0.81-2.07,1.395-4.515,1.755-7.335S212,36.344,212,33.104z"/>
	<path fill="#2B2C2F" d="M243.859,65.684c-1.62,0-3.285-0.105-4.995-0.314c-1.71-0.211-3.33-0.481-4.86-0.811
		c-1.529-0.329-2.925-0.688-4.185-1.08c-1.26-0.389-2.221-0.765-2.88-1.125l2.16-9.27c1.26,0.601,3.089,1.275,5.49,2.025
		c2.398,0.751,5.368,1.125,8.909,1.125c4.739,0,8.159-0.914,10.261-2.745c2.1-1.83,3.149-4.275,3.149-7.335
		c0-1.98-0.405-3.63-1.215-4.95c-0.81-1.319-1.921-2.385-3.33-3.195c-1.41-0.81-3.03-1.379-4.86-1.71
		c-1.83-0.329-3.766-0.495-5.805-0.495h-3.689v-8.82h4.5c1.379,0,2.774-0.135,4.185-0.405c1.409-0.27,2.685-0.75,3.825-1.44
		c1.139-0.689,2.07-1.604,2.79-2.745c0.72-1.139,1.08-2.61,1.08-4.41c0-1.44-0.271-2.669-0.811-3.69
		c-0.54-1.02-1.246-1.859-2.114-2.52c-0.871-0.66-1.876-1.139-3.016-1.44c-1.141-0.299-2.34-0.45-3.6-0.45
		c-2.7,0-5.101,0.405-7.2,1.215c-2.101,0.81-3.96,1.725-5.58,2.745l-3.96-8.1c0.84-0.54,1.859-1.11,3.06-1.71
		c1.2-0.599,2.534-1.17,4.006-1.71c1.469-0.54,3.044-0.975,4.725-1.305c1.679-0.329,3.449-0.495,5.31-0.495
		c3.479,0,6.48,0.42,9,1.26c2.521,0.841,4.604,2.025,6.256,3.555c1.649,1.53,2.88,3.33,3.689,5.4
		c0.811,2.07,1.215,4.335,1.215,6.795c0,2.88-0.796,5.46-2.385,7.74c-1.591,2.281-3.645,4.021-6.165,5.22
		c3.24,1.14,5.925,3.03,8.055,5.67c2.13,2.641,3.195,6.03,3.195,10.17c0,2.761-0.48,5.325-1.44,7.695
		c-0.96,2.371-2.43,4.41-4.409,6.12c-1.98,1.71-4.486,3.06-7.516,4.05C251.674,65.189,248.059,65.684,243.859,65.684z"/>
</g>
<g opacity="0.1">
	<path fill="#2B2C2F" d="M44.379,33.104c0,10.501-1.92,18.557-5.759,24.166c-3.841,5.61-9.15,8.414-15.93,8.414
		c-6.781,0-12.092-2.804-15.931-8.414C2.919,51.66,1,43.604,1,33.104c0-5.22,0.495-9.854,1.485-13.904
		c0.99-4.051,2.43-7.455,4.319-10.215s4.17-4.86,6.841-6.301c2.668-1.439,5.684-2.16,9.045-2.16c6.779,0,12.089,2.807,15.93,8.416
		C42.459,14.55,44.379,22.605,44.379,33.104z M33.13,33.104c0-3.24-0.18-6.269-0.54-9.09c-0.36-2.819-0.944-5.265-1.755-7.334
		c-0.811-2.07-1.876-3.705-3.195-4.906c-1.32-1.199-2.97-1.799-4.949-1.799c-1.98,0-3.646,0.6-4.996,1.799
		c-1.35,1.201-2.43,2.836-3.239,4.906c-0.81,2.069-1.382,4.515-1.71,7.334c-0.33,2.821-0.495,5.85-0.495,9.09
		s0.165,6.271,0.495,9.09c0.328,2.822,0.9,5.266,1.71,7.336s1.89,3.705,3.239,4.904c1.351,1.201,3.016,1.801,4.996,1.801
		c1.979,0,3.629-0.6,4.949-1.801c1.319-1.199,2.385-2.834,3.195-4.904s1.395-4.514,1.755-7.336
		C32.95,39.375,33.13,36.344,33.13,33.104z"/>
	<path fill="#2B2C2F" d="M51.848,14.924c3.48-1.379,6.977-3.15,10.486-5.311c3.51-2.159,6.615-4.709,9.314-7.649h7.65v62.37H68.408
		v-47.79c-1.619,1.261-3.66,2.491-6.119,3.69c-2.461,1.201-4.83,2.19-7.111,2.97L51.848,14.924z"/>
</g>
</svg>
