<?xml version="1.0" encoding="iso-8859-1"?>
<!-- Generator: Adobe Illustrator 16.0.0, SVG Export Plug-In . SVG Version: 6.00 Build 0)  -->
<!DOCTYPE svg PUBLIC "-//W3C//DTD SVG 1.1//EN" "http://www.w3.org/Graphics/SVG/1.1/DTD/svg11.dtd">
<svg version="1.1" id="Capa_1" xmlns="http://www.w3.org/2000/svg" xmlns:xlink="http://www.w3.org/1999/xlink" x="0px" y="0px"
	 width="335.442px" height="335.442px" viewBox="0 0 335.442 335.442" style="enable-background:new 0 0 335.442 335.442;"
	 xml:space="preserve">
<g>
	<path d="M333.723,252.263c0-1.836-0.612-3.672-2.448-5.508c-26.316-26.929-52.021-55.692-78.948-85.068
		c24.48-26.316,48.96-51.408,75.276-75.888c2.447-2.448,3.06-5.509,1.836-7.956c2.448-2.448,3.672-6.12,1.224-9.181
		c-8.567-12.239-20.808-22.644-32.436-31.823c-8.568-7.345-25.704-22.032-37.944-17.137c-1.224,0.612-2.448,1.836-3.672,3.061
		l-0.612,0.611c-16.523,17.137-29.987,36.721-47.124,53.856c-6.731,6.12-13.464,12.852-20.195,18.972
		c-34.272-33.048-70.38-63.036-110.161-85.68c-1.836-0.612-3.06-0.612-4.896,0c-1.836,0-4.284,0.612-5.508,2.448
		c-9.18,11.016-20.196,20.808-31.212,29.987c-6.12,5.509-12.852,11.017-19.584,15.301c-3.672,2.447-9.18,3.672-11.628,7.344
		c-0.612,0.612-1.224,1.224-1.836,1.836c-3.06,1.224-5.508,5.508-2.448,7.956c33.048,31.824,64.26,65.483,96.084,97.92
		c-11.628,9.18-23.868,17.748-36.108,26.928c-18.36,13.465-35.496,28.152-45.288,48.349c-2.448,1.224-4.284,3.672-3.672,6.731
		c4.284,16.524,20.808,31.212,32.436,42.841c7.956,7.956,26.316,29.987,38.556,26.928c0.612,0,1.224-0.612,1.836-1.225
		c1.836,1.225,3.672,1.225,5.508,0c31.212-20.195,58.14-48.96,83.844-77.724c15.3,13.464,30.6,26.928,45.288,41.616
		c9.18,9.18,25.092,31.212,39.779,30.6c0.612,0,1.225,0,1.836-0.611c0.612,3.672,4.284,7.344,8.568,4.283
		c23.868-15.911,54.468-33.048,64.26-62.424C336.17,256.547,335.559,254.099,333.723,252.263z M166.646,137.206L166.646,137.206
		c11.016,9.181,20.808,19.584,30.6,29.988C186.842,157.402,176.438,147.61,166.646,137.206z"/>
</g>
<g>
</g>
<g>
</g>
<g>
</g>
<g>
</g>
<g>
</g>
<g>
</g>
<g>
</g>
<g>
</g>
<g>
</g>
<g>
</g>
<g>
</g>
<g>
</g>
<g>
</g>
<g>
</g>
<g>
</g>
</svg>
