<?xml version="1.0" encoding="UTF-8" standalone="no"?>
<!-- Created with Inkscape (http://www.inkscape.org/) -->

<svg
   xmlns:dc="http://purl.org/dc/elements/1.1/"
   xmlns:cc="http://creativecommons.org/ns#"
   xmlns:rdf="http://www.w3.org/1999/02/22-rdf-syntax-ns#"
   xmlns:svg="http://www.w3.org/2000/svg"
   xmlns="http://www.w3.org/2000/svg"
   xmlns:sodipodi="http://sodipodi.sourceforge.net/DTD/sodipodi-0.dtd"
   xmlns:inkscape="http://www.inkscape.org/namespaces/inkscape"
   width="80.829788"
   height="68.999947"
   id="svg2"
   version="1.1"
   inkscape:version="0.48.2 r9819"
   sodipodi:docname="two.svg">
  <defs
     id="defs4" />
  <sodipodi:namedview
     id="base"
     pagecolor="#ffffff"
     bordercolor="#666666"
     borderopacity="1.0"
     inkscape:pageopacity="0.0"
     inkscape:pageshadow="2"
     inkscape:zoom="0.98994949"
     inkscape:cx="-298.85527"
     inkscape:cy="-21.440783"
     inkscape:document-units="px"
     inkscape:current-layer="layer1"
     showgrid="false"
     inkscape:window-width="1280"
     inkscape:window-height="737"
     inkscape:window-x="-8"
     inkscape:window-y="-8"
     inkscape:window-maximized="1"
     fit-margin-top="0"
     fit-margin-left="0"
     fit-margin-right="0"
     fit-margin-bottom="0" />
  <metadata
     id="metadata7">
    <rdf:RDF>
      <cc:Work
         rdf:about="">
        <dc:format>image/svg+xml</dc:format>
        <dc:type
           rdf:resource="http://purl.org/dc/dcmitype/StillImage" />
        <dc:title></dc:title>
      </cc:Work>
    </rdf:RDF>
  </metadata>
  <g
     inkscape:label="Layer 1"
     inkscape:groupmode="layer"
     id="layer1"
     transform="translate(-281.26318,-960.90625)">
    <path
       style="fill:#555555"
       d="m 300.0625,960.90625 0,9.09375 c 0,10.4849 1.60805,13.9206 7.53125,16.0625 2.8351,1.0251 3.46875,1.7758 3.46875,4.0625 0,1.8214 -0.5239,2.78125 -1.5,2.78125 -0.9138,0 -1.5,0.95405 -1.5,2.40625 0,2.3261 -0.225,2.38865 -10,2.78125 -9.7049,0.3898 -10.11865,0.49365 -13.21875,3.59375 -2.866,2.866 -3.22955,3.9099 -3.53125,9.9687 -0.6009,12.0712 4.21095,16.25 18.71875,16.25 4.6881,0 8.03125,0.4164 8.03125,1 0,0.6223 5.6667,1 15,1 9.3333,0 15,-0.3777 15,-1 0,-0.5784 3.19599,-1 7.5625,-1 8.958,0 12.5221,-1.5172 14.8125,-6.3437 2.4517,-5.1667 2.13675,-13.596 -0.65625,-17.75 -2.7756,-4.1282 -7.11535,-5.76875 -15.46875,-5.84375 -5.98505,-0.054 -6.25,-0.1685 -6.25,-2.5625 0,-1.5556 -0.5667,-2.5 -1.5,-2.5 -1,0 -1.5,-1 -1.5,-3 0,-2.3254 0.462,-3 2,-3 1.0913,0 3.4538,-1.30225 5.25,-2.90625 3.22181,-2.8771 3.25465,-3.0522 3.59375,-13 l 0.34375,-10.09375 -23.09375,0 -23.09375,0 z m 2,2 20.5,0 20.5,0 0,8.5625 c 0,7.7396 -0.21439,8.7769 -2.4375,11 -2.38444,2.3869 -2.8625,2.441 -16.75,2.375 -7.8625,-0.0372 -15.2311,-0.5074 -16.375,-1.0625 -3.7281,-1.809 -5.4375,-6.12605 -5.4375,-13.78125 l 0,-7.09375 z m 7,3 c -0.5714,0 -1,3 -1,7 0,4 0.4286,7 1,7 0.5714,0 1,-3 1,-7 0,-4 -0.4286,-7 -1,-7 z m 19,0 c -0.5714,0 -1,3 -1,7 0,4 0.4286,7 1,7 0.5714,0 1,-3 1,-7 0,-4 -0.4286,-7 -1,-7 z m -10.5,0.5 c -0.55,0 -1.11865,3.0375 -1.28125,6.75 -0.2466,5.6294 -0.046,6.75 1.28125,6.75 1.3267,0 1.5591,-1.1206 1.3125,-6.75 -0.1626,-3.7125 -0.7625,-6.75 -1.3125,-6.75 z m 19,0 c -0.55,0 -1.11865,3.0375 -1.28125,6.75 -0.2466,5.6294 -0.046,6.75 1.28125,6.75 1.3267,0 1.5591,-1.1206 1.3125,-6.75 -0.1626,-3.7125 -0.7625,-6.75 -1.3125,-6.75 z m -23.5,20.4375 9.75,0.28125 9.75,0.28125 0.3125,2.75 0.3125,2.75 -10.0625,0 -10.0625,0 0,-3.03125 0,-3.03125 z m 22,8 0,16.53125 0,16.5312 -12.53125,0 -12.5,0 0.25,-16.25 0.28125,-16.24995 12.25,-0.28125 12.25,-0.28125 z m -36.53125,6.06245 9.53125,0 0,12 0,12 -9.34375,0 c -8.7617,0 -9.5558,-0.1495 -12,-2.5937 -4.6683,-4.6684 -4.7251,-14.3998 -0.125,-19 2.1841,-2.184 3.2081,-2.4063 11.9375,-2.4063 z m 39.53125,0 7.78125,0 c 5.302,0 8.4745,0.4753 9.9375,1.5 4.8409,3.3907 5.48815,15.5412 1.09375,20.2188 -1.9264,2.0506 -3.06715,2.2812 -10.46875,2.2812 l -8.34375,0 0,-12 0,-12 z m -42.96875,4.3438 c -0.32948,0.024 -0.63948,0.084 -0.96875,0.1562 -6.0369,1.326 -8.04345,8.6128 -3.59375,13.0626 4.3802,4.3801 11.574,2.1797 13.125,-4 1.17244,-4.6711 -3.62035,-9.5774 -8.5625,-9.2188 z m 32.5625,1.5625 -4.40625,0.3125 c -4.2588,0.2871 -4.4493,0.4299 -6.25,5.1875 -1.0213,2.6983 -1.6049,5.3081 -1.3125,5.7813 0.9507,1.5382 2.0825,-0.04 3.375,-4.6563 1.1208,-4.003 1.59075,-4.5313 4.09375,-4.5313 2.4365,0 2.99635,0.577 4.03125,4.0313 1.2532,4.1827 3.865,7.4462 3.875,4.8437 0.003,-0.7548 -0.742,-3.5183 -1.6875,-6.1562 l -1.71875,-4.8125 z m 14.40625,1.0937 0,5 0,5 6.5,0 6.5,0 0,-5 0,-5 -6.5,0 -6.5,0 z m -45.09375,0.063 c 1.1551,0.082 2.21734,0.4673 2.90625,1.1562 1.989,1.989 1.41725,6.535 -1.03125,8.25 -2.5506,1.7865 -2.50525,1.7709 -5.53125,0.3125 -3.1064,-1.4971 -3.96355,-5.3321 -1.71875,-7.8125 1.23756,-1.3676 3.44983,-2.0427 5.375,-1.9062 z m 51.59375,1.9374 c 4.3333,0 4.5,0.1111 4.5,3 0,2.889 -0.1667,3 -4.5,3 -4.3333,0 -4.5,-0.111 -4.5,-3 0,-2.8889 0.1667,-3 4.5,-3 z"
       id="path3028"
       inkscape:connector-curvature="0" />
  </g>
</svg>
