<?xml version="1.0" encoding="UTF-8" standalone="no"?>
<!-- Created with Inkscape (http://www.inkscape.org/) -->

<svg
   xmlns:dc="http://purl.org/dc/elements/1.1/"
   xmlns:cc="http://creativecommons.org/ns#"
   xmlns:rdf="http://www.w3.org/1999/02/22-rdf-syntax-ns#"
   xmlns:svg="http://www.w3.org/2000/svg"
   xmlns="http://www.w3.org/2000/svg"
   xmlns:sodipodi="http://sodipodi.sourceforge.net/DTD/sodipodi-0.dtd"
   xmlns:inkscape="http://www.inkscape.org/namespaces/inkscape"
   width="69.702126"
   height="69.620117"
   id="svg2"
   version="1.1"
   inkscape:version="0.48.2 r9819"
   sodipodi:docname="one.svg">
  <defs
     id="defs4" />
  <sodipodi:namedview
     id="base"
     pagecolor="#ffffff"
     bordercolor="#666666"
     borderopacity="1.0"
     inkscape:pageopacity="0.0"
     inkscape:pageshadow="2"
     inkscape:zoom="0.98994949"
     inkscape:cx="-17.592089"
     inkscape:cy="1.0151997"
     inkscape:document-units="px"
     inkscape:current-layer="layer1"
     showgrid="false"
     inkscape:window-width="1280"
     inkscape:window-height="737"
     inkscape:window-x="-8"
     inkscape:window-y="-8"
     inkscape:window-maximized="1"
     fit-margin-top="0"
     fit-margin-left="0"
     fit-margin-right="0"
     fit-margin-bottom="0" />
  <metadata
     id="metadata7">
    <rdf:RDF>
      <cc:Work
         rdf:about="">
        <dc:format>image/svg+xml</dc:format>
        <dc:type
           rdf:resource="http://purl.org/dc/dcmitype/StillImage" />
        <dc:title></dc:title>
      </cc:Work>
    </rdf:RDF>
  </metadata>
  <g
     inkscape:label="Layer 1"
     inkscape:groupmode="layer"
     id="layer1"
     transform="translate(-71.895944,-900.09375)">
    <path
       style="fill:#555555"
       d="m 106.6875,900.09375 c -10.127105,0 -17.48364,3.0461 -24.5625,10.125 -19.99351,19.9935 -9.050235,54.4999 18.71875,59 33.49671,5.4283 54.38394,-35.0536 30.4375,-59 -7.07886,-7.0789 -14.46665,-10.125 -24.59375,-10.125 z m 0,2.15625 c 11.34323,0 22.71525,5.72804 29.0625,17.1875 2.73362,4.9353 2.9375,6.1594 2.9375,15.375 0,9.2156 -0.20388,10.40845 -2.9375,15.34375 -3.78185,6.8278 -10.26646,12.50425 -17.1875,15.09375 -15.50403,5.8008 -32.87639,-0.59655 -40.90625,-15.09375 -2.73362,-4.9353 -2.96875,-6.12815 -2.96875,-15.34375 0,-9.2156 0.23513,-10.4397 2.96875,-15.375 C 84.0035,907.97804 95.344274,902.25 106.6875,902.25 z m 0.0312,5.5625 c -1.24525,0 -1.87567,3.09965 -1.0625,5.21875 0.43187,1.1254 0.9204,1.2984 1.65625,0.5625 1.26368,-1.2637 0.80187,-5.78125 -0.59375,-5.78125 z m -10.8125,1.5 c -0.06188,0.0157 -0.108238,0.0457 -0.15625,0.0937 -0.34056,0.3406 -0.09637,1.804 0.5625,3.25 1.26684,2.7804 2.875,3.54275 2.875,1.34375 0,-1.67231 -2.353017,-4.92358 -3.28125,-4.6875 z m 21.375,0 c -1.02903,0.18986 -3.09375,3.12667 -3.09375,4.6875 0,0.7199 0.38204,1.3125 0.84375,1.3125 1.12959,0 3.40666,-5.12455 2.625,-5.90625 -0.096,-0.096 -0.228,-0.12087 -0.375,-0.0937 z m -29.5625,6.21875 c -0.0689,0.0161 -0.141923,0.0482 -0.1875,0.0937 -0.35992,0.3599 0.15771,1.55295 1.15625,2.65625 1.88671,2.0848 3.5,2.6473 3.5,1.1875 0,-1.2435 -3.435303,-4.17923 -4.46875,-3.9375 z m 36.03125,2.0625 c -0.68413,-0.0438 -3.62132,2.30622 -6.84375,5.5 -5.28432,5.2373 -6.80229,6.21875 -9.78125,6.21875 -4.33918,0 -5.9375,1.4707 -5.9375,5.5 0,1.705 0.55875,3.62125 1.21875,4.28125 0.66,0.66 2.57625,1.21875 4.28125,1.21875 4.02923,0 5.5,-1.5983 5.5,-5.9375 0,-2.979 0.9814,-4.49695 6.21875,-9.78125 3.40671,-3.4372 5.86549,-6.57195 5.46875,-6.96875 -0.0248,-0.0248 -0.0794,-0.0283 -0.125,-0.0312 z m -41.9375,6.09375 c -0.21415,0.0106 -0.402294,0.0585 -0.5,0.15625 -0.34056,0.3406 0.277,1.25125 1.34375,2.03125 2.14962,1.5719 4.53125,1.89255 4.53125,0.59375 0,-0.9884 -3.875949,-2.85532 -5.375,-2.78125 z m 49.78125,0 c -1.49905,-0.0741 -5.40625,1.79285 -5.40625,2.78125 0,0.4617 0.59262,0.84375 1.3125,0.84375 1.78384,0 5.36195,-2.70055 4.59375,-3.46875 -0.0977,-0.0977 -0.28585,-0.14567 -0.5,-0.15625 z m -25.625,8.125 c 0.22759,-0.0174 0.48927,0 0.75,0 2.65144,0 2.96875,0.3364 2.96875,3 0,2.5309 -0.42523,3.0451 -2.75,3.3125 -2.92366,0.3363 -4.18716,-1.28765 -3.5625,-4.53125 0.21284,-1.10521 1.00064,-1.65961 2.59375,-1.78125 z M 82.25,933.375 c -0.575414,0.0281 -1.148275,0.14882 -1.65625,0.34375 -0.82775,0.3177 -1.2368,1.0396 -0.875,1.625 0.80464,1.302 5.96875,0.84295 5.96875,-0.53125 0,-0.91365 -1.711258,-1.52177 -3.4375,-1.4375 z m 48,0 c -0.57541,0.0281 -1.14828,0.14882 -1.65625,0.34375 -0.82775,0.3177 -1.2368,1.0396 -0.875,1.625 0.80464,1.302 5.96875,0.84295 5.96875,-0.53125 0,-0.91365 -1.71126,-1.52177 -3.4375,-1.4375 z m -44.125,8.9375 c -1.70982,0 -4.9375,1.97945 -4.9375,3.03125 0,1.234 0.37563,1.19055 3.46875,-0.21875 2.57432,-1.173 3.43117,-2.8125 1.46875,-2.8125 z m 41.15625,0 c -1.85651,0 -1.18041,1.6231 1.15625,2.75 2.88715,1.3924 3.75,1.47675 3.75,0.28125 0,-1.0518 -3.19643,-3.03125 -4.90625,-3.03125 z m -33.59375,6.5 -0.28125,4.25 -0.3125,4.25 13.59375,0 13.625,0 -0.3125,-4.25 -0.3125,-4.25 -13,0 -13,0 z m 13,2 c 10.64606,0 11.03448,0.0724 11.34375,2.25 0.31568,2.223 0.15444,2.25 -11.34375,2.25 -11.498195,0 -11.62818,-0.0273 -11.3125,-2.25 0.30927,-2.178 0.666435,-2.25 11.3125,-2.25 z"
       id="path3028"
       inkscape:connector-curvature="0" />
  </g>
</svg>
