<svg xmlns="http://www.w3.org/2000/svg" width="10" height="13" viewBox="0 0 10 13">
    <g fill="none" fill-rule="evenodd">
        <path d="M-2 0h14v14H-2z"/>
        <path fill="#FFF" fill-rule="nonzero" d="M8.5 4.667h-.583V3.5a2.918 2.918 0 0 0-5.834 0v1.167H1.5A1.17 1.17 0 0 0 .333 5.833v5.834A1.17 1.17 0 0 0 1.5 12.833h7a1.17 1.17 0 0 0 1.167-1.166V5.833A1.17 1.17 0 0 0 8.5 4.667zM5 9.917A1.17 1.17 0 0 1 3.833 8.75 1.17 1.17 0 0 1 5 7.583 1.17 1.17 0 0 1 6.167 8.75 1.17 1.17 0 0 1 5 9.917zm1.808-5.25H3.192V3.5c0-.998.81-1.808 1.808-1.808.997 0 1.808.81 1.808 1.808v1.167z"/>
    </g>
</svg>
