<svg xmlns="http://www.w3.org/2000/svg" width="26" height="26" viewBox="0 0 26 26">
    <g fill="none" fill-rule="nonzero" opacity=".5" transform="translate(1 1)">
        <circle cx="12" cy="12" r="12" stroke="#FFF"/>
        <path fill="#FFF" d="M17.497 7.41c-.339.217-1.117.532-1.5.532v.001a2.405 2.405 0 0 0-4.082 2.198c-1.802-.047-3.772-.95-4.958-2.495-.73 1.262-.099 2.666.729 3.177-.283.022-.805-.032-1.05-.272-.017.838.386 1.948 1.855 2.35-.283.153-.784.109-1.001.077.076.707 1.066 1.631 2.15 1.631-.387.447-1.839 1.257-3.469.999a7.226 7.226 0 0 0 3.762 1.063c3.88 0 6.893-3.144 6.731-7.023v-.013-.03l-.001-.036a4.149 4.149 0 0 0 1.166-1.231c-.197.108-.786.325-1.334.378.352-.19.873-.811 1.002-1.306"/>
    </g>
</svg>
