<?xml version="1.0" encoding="UTF-8" standalone="no"?>
<!-- Created with Inkscape (http://www.inkscape.org/) -->

<svg
   xmlns:dc="http://purl.org/dc/elements/1.1/"
   xmlns:cc="http://creativecommons.org/ns#"
   xmlns:rdf="http://www.w3.org/1999/02/22-rdf-syntax-ns#"
   xmlns:svg="http://www.w3.org/2000/svg"
   xmlns="http://www.w3.org/2000/svg"
   xmlns:sodipodi="http://sodipodi.sourceforge.net/DTD/sodipodi-0.dtd"
   xmlns:inkscape="http://www.inkscape.org/namespaces/inkscape"
   width="54.872837"
   height="70.254807"
   id="svg2"
   version="1.1"
   inkscape:version="0.48.2 r9819"
   sodipodi:docname="Новый документ 1">
  <defs
     id="defs4" />
  <sodipodi:namedview
     id="base"
     pagecolor="#ffffff"
     bordercolor="#666666"
     borderopacity="1.0"
     inkscape:pageopacity="0.0"
     inkscape:pageshadow="2"
     inkscape:zoom="0.98994949"
     inkscape:cx="54.303854"
     inkscape:cy="-118.367"
     inkscape:document-units="px"
     inkscape:current-layer="layer1"
     showgrid="false"
     fit-margin-top="0"
     fit-margin-left="0"
     fit-margin-right="0"
     fit-margin-bottom="0"
     inkscape:window-width="1280"
     inkscape:window-height="737"
     inkscape:window-x="-8"
     inkscape:window-y="-8"
     inkscape:window-maximized="1" />
  <metadata
     id="metadata7">
    <rdf:RDF>
      <cc:Work
         rdf:about="">
        <dc:format>image/svg+xml</dc:format>
        <dc:type
           rdf:resource="http://purl.org/dc/dcmitype/StillImage" />
        <dc:title></dc:title>
      </cc:Work>
    </rdf:RDF>
  </metadata>
  <g
     inkscape:label="Layer 1"
     inkscape:groupmode="layer"
     id="layer1"
     transform="translate(-101.84591,-886.65625)">
    <path
       style="fill:#555555"
       d="m 120.21875,886.65625 -0.5,15.5 -0.5,15.5 -3.6875,-7.125 c -2.94124,-5.6644 -4.62765,-7.6638 -8.1875,-9.75 -2.46297,-1.4434 -4.79008,-2.625 -5.15625,-2.625 -1.08841,0 0.63145,10.279 2.25,13.4375 1.19296,2.328 1.47276,6.77455 1.34375,22.03125 -0.1462,17.2901 -4.4e-4,19.30135 1.625,20.71875 0.98921,0.8627 2.4875,1.83275 3.3125,2.15625 0.825,0.3235 7.87473,0.4892 15.65625,0.375 17.54385,-0.2576 18.34375,-0.7261 18.34375,-10.375 l 0,-6.34375 3.09375,0 c 4.13801,0 8.90625,-4.74135 8.90625,-8.84375 0,-4.1475 -4.22167,-8.94925 -8.21875,-9.34375 -2.53145,-0.2499 -3.3047,-0.8986 -3.96875,-3.3125 -1.11009,-4.0353 1.57483,-11.2837 5.3125,-14.3125 2.38679,-1.9341 2.875,-3.0613 2.875,-6.8125 0,-3.6453 -0.54072,-5.072 -2.90625,-7.4375 -3.46861,-3.4687 -6.56552,-3.96805 -5.59375,-0.90625 0.39398,1.2413 -0.16105,3.3096 -1.4375,5.375 -2.20151,3.5621 -2.61605,6.59695 -1.15625,8.15625 0.53092,0.5671 -0.49402,3.3575 -2.5,6.9375 l -3.34375,6 -0.28125,-14.5 -0.28125,-14.5 -7.5,0 -7.5,0 z m 1.5,1.40625 5.75,0.3125 c 5.38669,0.2809 5.75,0.43915 5.75,2.78125 0,2.0926 -0.54494,2.5491 -3.28125,2.8125 -3.9727,0.3826 -3.27389,2.1875 0.84375,2.1875 1.61754,0 2.9375,0.45 2.9375,1 0,0.55 -0.86996,1 -1.9375,1 -1.06754,0 -2.22258,0.45 -2.5625,1 -0.35052,0.5671 0.48614,1 1.9375,1 1.60802,0 2.5625,0.5574 2.5625,1.5 0,1.0476 -1.05556,1.5 -3.5,1.5 -1.925,0 -3.5,0.45 -3.5,1 0,0.55 1.575,1 3.5,1 3.06667,0 3.5,0.3095 3.5,2.5 0,2 -0.5,2.5 -2.5,2.5 -1.375,0 -2.5,0.45 -2.5,1 0,0.55 1.125,1 2.5,1 2,0 2.5,0.5 2.5,2.5 0,2.3889 -0.26667,2.5 -6,2.5 l -6,0 0,-14.53125 0,-14.5625 z m 25.375,2.40625 c 0.2922,0.0424 0.79379,0.43525 1.625,1.1875 2.26492,2.0497 2.76645,8.3585 0.8125,10.3125 -0.66,0.66 -1.9325,1.1875 -2.8125,1.1875 -1.97037,0 -4,-1.91325 -4,-3.78125 0,-0.7657 0.9,-2.539 2,-3.9375 1.1,-1.3984 2,-3.2264 2,-4.0625 0,-0.63175 0.0828,-0.9486 0.375,-0.90625 z m -41.53125,11.9375 c 0.20426,-0.0126 0.45152,0.0417 0.75,0.15625 0.86998,0.3338 1.76998,0.59375 2,0.59375 0.23001,0 0.40625,0.36355 0.40625,0.78125 0,0.4177 -0.9,1.313 -2,2 -1.80858,1.1295 -2,0.9901 -2,-1.375 0,-1.48087 0.23098,-2.11857 0.84375,-2.15625 z m 39.15625,2.75 c 0.45196,0 -0.15052,2.5887 -1.375,5.75 -1.31971,3.407 -2.93519,5.90075 -3.9375,6.09375 -0.92998,0.1791 -1.6875,0.0424 -1.6875,-0.28125 0,-1.2727 6.22784,-11.5625 7,-11.5625 z m -34.75,1.03125 c 0.66964,-0.0291 5.75,9.1968 5.75,10.4375 0,0.2933 -1.50228,0.53125 -3.34375,0.53125 -2.94185,0 -3.56282,-0.4664 -5.15625,-4 -1.76534,-3.9148 -1.76709,-4.06055 0.0937,-5.46875 1.05139,-0.7956 2.25302,-1.482 2.65625,-1.5 z m -2.25,12.96875 17.5,0 17.5,0 0,16.46875 c 0,15.8584 -0.0753,16.4986 -2.21875,18 -1.73601,1.2159 -5.08393,1.53125 -15.28125,1.53125 -18.45888,0 -17.5,1.09695 -17.5,-19.53125 l 0,-16.46875 z m 37,5 3,0 c 3.60015,0 7,3.1014 7,6.375 0,1.3008 -0.92258,3.5508 -2.0625,5 -1.39578,1.7745 -3.02853,2.625 -5,2.625 l -2.9375,0 0,-7 0,-7 z"
       id="path3026"
       inkscape:connector-curvature="0" />
  </g>
</svg>
