<svg xmlns="http://www.w3.org/2000/svg" width="14" height="14" viewBox="0 0 14 14">
    <g fill="none" fill-rule="evenodd">
        <path d="M-1-1h16v16H-1z"/>
        <path fill="#FFF" fill-rule="nonzero" d="M6.993.333A6.663 6.663 0 0 0 .333 7c0 3.68 2.98 6.667 6.66 6.667A6.67 6.67 0 0 0 13.667 7 6.67 6.67 0 0 0 6.993.333zm.007 12A5.332 5.332 0 0 1 1.667 7 5.332 5.332 0 0 1 7 1.667 5.332 5.332 0 0 1 12.333 7 5.332 5.332 0 0 1 7 12.333z"/>
        <path fill="#FFF" fill-rule="nonzero" d="M7.333 3.667h-1v4l3.5 2.1.5-.82-3-1.78z"/>
    </g>
</svg>
