<svg xmlns="http://www.w3.org/2000/svg" width="14" height="14" viewBox="0 0 14 14">
    <g fill="none" fill-rule="evenodd">
        <path d="M-2-2h18v18H-2z"/>
        <path fill="#FFF" fill-rule="nonzero" d="M6.25 10.75c0 .412.338.75.75.75s.75-.338.75-.75A.752.752 0 0 0 7 10a.752.752 0 0 0-.75.75zm0-10.5v3h1.5V1.81A5.246 5.246 0 0 1 7 12.25 5.246 5.246 0 0 1 1.75 7c0-1.26.442-2.415 1.185-3.315L7 7.75l1.057-1.057-5.1-5.1v.014A6.715 6.715 0 0 0 .25 7 6.746 6.746 0 0 0 7 13.75 6.75 6.75 0 0 0 7 .25h-.75zM11.5 7a.752.752 0 0 0-.75-.75A.752.752 0 0 0 10 7c0 .412.338.75.75.75s.75-.338.75-.75zm-9 0c0 .412.338.75.75.75S4 7.412 4 7a.752.752 0 0 0-.75-.75.752.752 0 0 0-.75.75z"/>
    </g>
</svg>
