<svg xmlns="http://www.w3.org/2000/svg" viewBox="0 0 1000 1000" height="1000" width="1000"><path d="M681.606 980.763c-28.07-1.856-53.296-9.828-74.025-23.394-15.215-9.957-40.732-38.031-52.37-57.619-21.239-35.744-31.264-72.05-32.565-117.931-1.276-45.004 5.779-84.632 20.755-116.582 16.444-35.083 36.68-64.435 60-87.028l10.364-10.04-1.98-6.541c-2.179-7.192-13.538-30.822-14.817-30.822-1.118 0-43.865 53.047-95.805 118.89l-43.8 55.523.636 6.168c.804 7.784-.582 10.383-7.67 14.38-18.504 10.432-17.538 9.538-32.418 29.973-10.04 13.786-13.899 19.985-13.274 21.32.485 1.034 1.088 5.52 1.339 9.967.376 6.662.093 8.352-1.605 9.594-2.817 2.06-1.582 12.226 2.443 20.125 3.568 7 3.777 12.97.633 18.126-2.782 4.563-6.942 5.854-13.009 4.036-6.832-2.046-11.52-1.684-13.428 1.04-2.42 3.454-17.648 8.308-29.013 9.246l-9.818.811-5.2 12.081c-23.08 53.614-54.07 91.24-88.64 107.617-16.133 7.643-24.548 9.172-51.157 9.294-27.334.125-32.337-.823-49.745-9.428-24.35-12.036-41.758-32.56-54.638-64.417-13.615-33.673-18.86-68.235-16.815-110.814 2.504-52.132 20.37-104.342 48.233-140.945 12.585-16.533 31.846-34.46 50.184-46.71 19.131-12.778 31.22-16.071 58.906-16.046 14.819.013 21.117.495 26.057 1.994a852.751 852.751 0 0 0 8.883 2.654c1.993.57 4.248-2.17 14.213-17.259 7.496-11.352 15.322-21.493 21.32-27.626l9.474-9.69-2.569-10.15c-1.413-5.583-3.964-21.27-5.67-34.859-4.99-39.767-7.838-52.946-14.75-68.239-2.545-5.632-4.643-8.303-8.783-11.189-7.218-5.03-11.288-5.987-31.597-7.43-22.74-1.616-28.225-2.337-33.119-4.354-5.49-2.263-5.938-3.279-5.153-11.691.81-8.68-.431-11.533-10.467-24.05-9.678-12.071-10.512-14.07-11.223-26.9-1.513-27.298 6.242-55.873 21.54-79.374 2.757-4.234 5.182-9.85 6.08-14.08 3.801-17.902 12.669-27.817 42.358-47.36 11.183-7.361 22.166-14.957 24.406-16.88 2.241-1.922 7.273-5.264 11.181-7.426 9.498-5.253 13.565-8.534 33.748-27.224 33.662-31.174 47.269-38.1 71.073-36.176 18.366 1.485 29.031 1.34 31.152-.422 1.724-1.433 1.613-2.093-1.201-7.134-4.09-7.325-3.208-10.515 5.03-18.18 6.699-6.236 8.075-9.98 4.696-12.784-2.277-1.89-2.25-6.71.087-15.734 6.763-26.099 25.251-39.933 53.365-39.933 22.762 0 43.635 10.622 62.028 31.565 12.026 13.693 17.766 27.716 17.766 43.404 0 9.507-2.088 16.51-7.548 25.311-6.754 10.886-7.146 11.263-10.432 10.014-2.57-.977-3.906-.106-12.582 8.206-7.378 7.067-9.708 10.053-9.708 12.441 0 2.243-2.498 5.905-8.724 12.791-7.844 8.675-12.603 15.546-12.59 18.177 0 .521 2.448 1.953 5.436 3.182 2.988 1.228 8.592 5.159 12.454 8.734 9.777 9.052 15.79 21.766 24.137 51.04 6.344 22.247 13.313 38.825 18.17 43.22 1.84 1.666 3.218 1.517 14.887-1.614 26.907-7.218 44.739-7.406 59.556-.627 10.068 4.606 16.458 12.108 25.228 29.622 14.396 28.746 16.216 29.649 59.835 29.667 32.84.013 36.25.547 46.338 7.242 11.765 7.81 10.081 18.357-6.133 38.412C760.222 403.946 758 407.466 758 411.403c0 4.309 4.177 8.355 10.617 10.285 2.747.823 4.78 2.167 4.78 3.161 0 2.344-12.607 2.321-26.056-.048-5.537-.975-13.432-1.774-17.543-1.775h-7.475l.775 5.167c.978 6.525-1.789 17.711-6.6 26.678-1.961 3.656-8.07 12.777-13.573 20.269-5.503 7.491-11.218 15.886-12.7 18.654-1.48 2.769-3.334 5.034-4.118 5.034-.783 0-5.17-1.956-9.747-4.348-7.1-3.708-8.745-4.154-11.198-3.037-2.833 1.29-2.849 1.384-1.085 6.42 1.316 3.757 1.753 9.736 1.65 22.58-.118 14.615.142 17.47 1.594 17.47.954 0 10.954-.853 22.222-1.895 27.852-2.578 66.477-1.729 82.96 1.823 21.846 4.708 37.927 11.779 54.232 23.848 41.454 30.683 66.84 75.685 76.45 135.528 2.582 16.077 3.65 67.758 1.717 83.111-3.14 24.95-12.05 54.016-24.262 79.153-18.767 38.627-44.756 69.138-79.508 93.337-20.735 14.438-57.408 25.85-88.452 27.525-6.668.36-13.456.795-15.085.968-1.628.173-8.823-.073-15.99-.547zm-457.182-41.44c15.75-6.571 31.504-20.902 45.458-41.35 8.56-12.542 20.815-34.203 19.88-35.138-.383-.384-3.113-.09-6.066.654-2.952.743-13.766 1.892-24.03 2.552-40.371 2.595-45.862 3.284-51.397 6.448-6.71 3.836-11.052 3.854-13.542.055-1.682-2.567-1.81-5.786-1.048-26.22l.869-23.293-4.345.816c-2.39.448-8.726 2.745-14.08 5.105-8.048 3.546-11.188 4.305-18.114 4.38-7.369.08-8.89-.297-12.606-3.129-3.232-2.463-4.605-4.692-5.834-9.475-2.24-8.714-1.892-32.497.628-42.972 3.567-14.83 8.25-19.986 35.373-38.948 4.4-3.075 9.908-7.557 12.24-9.96 4.438-4.569 15.985-23.282 41.869-67.854l15.419-26.551-3.23-.957c-4.402-1.303-23.138-.02-31.738 2.174-29.778 7.595-55.054 27.44-70.105 55.042-20.711 37.98-32.395 92.619-28.853 134.933 2.423 28.952 7.429 47.887 18.81 71.155 5.768 11.793 7.95 14.912 16.27 23.247 7.657 7.671 11.64 10.602 19.61 14.43 15.735 7.56 33.315 11.265 44.349 9.347 3.257-.567 9.653-2.587 14.213-4.49zm506.335-5.04c30.53-7.154 51.16-18.717 71.93-40.315 17.566-18.266 30.28-37.962 39.459-61.125 17.884-45.133 21.079-97.463 9.256-151.617-8.3-38.022-42.303-78.382-78.853-93.598-13.23-5.508-46.515-8.876-57.518-5.82-6.023 1.672-12.7 7.655-12.7 11.38 0 4.585-1.919 7.061-7.071 9.123-3.099 1.24-4.773 2.657-4.773 4.041 0 3.265 7.283 28.169 18.953 64.807 13.736 43.127 18.284 58.925 23.168 80.479 3.812 16.82 3.91 17.818 1.972 19.96-2.952 3.262-7.177 5.143-13.68 6.09-5.659.823-5.754.782-10.576-4.584-6.042-6.724-8.58-7.13-7.62-1.215.565 3.49.108 4.84-2.71 7.994-3.109 3.48-3.987 3.795-10.567 3.795-10.307 0-11.627-1.76-17.772-23.688-13.796-49.237-42.221-136.819-44.67-137.635-2.108-.702-18.175 15-25.653 25.071-12.958 17.451-22.82 42.005-31.178 77.624-10.648 45.382-4.258 103.725 15.566 142.107 17.165 33.236 43.893 57.623 72.102 65.79 21.148 6.12 50.239 6.654 72.935 1.336zm-459.832-80.05c9.29-1.387 18.156-3.002 19.7-3.589 6.019-2.288 10.2-11.01 14.245-29.708l2.82-13.037-3.258-1.685c-1.792-.927-5.87-2.324-9.063-3.106-6.93-1.697-13.646-4.903-15.861-7.573-3.434-4.137 1.121-23.444 12.56-53.235.723-1.884-.583-1.48-7.326 2.264-17.682 9.82-35.112 23.919-39.111 31.636-.907 1.75-2.442 8.826-3.41 15.725-1.811 12.902-2.713 15.711-5.89 18.349-1.013.84-1.842 3.053-1.842 4.917 0 7.776-13.34 15.386-17.351 9.899-.88-1.203-1.6-3.462-1.6-5.02 0-3.909-2.487-2.835-5.031 2.172-1.45 2.852-2.072 6.867-2.073 13.382v9.308l3.235-.812c3.773-.947 3.825-.953 6.536-.77 3.063.208 2.554 2.117-2.072 7.762-2.28 2.782-4.146 5.476-4.146 5.985 0 1.726 41.8-.305 58.94-2.864zm89.112-17.77c2.48-.729 1.93-1.02-3.383-1.787-5.113-.74-6.713-.548-8.248.988-1.75 1.75-1.476 1.895 3.382 1.787 2.908-.065 6.62-.51 8.249-.988zM168.8 817.349c.991-1.917 1.733-6.595 1.733-10.932 0-8.895 1.716-14.608 4.9-16.312 2.242-1.2 2.24-1.274-.125-4.28-4.272-5.431-2.89-11.191 5.758-23.98 1.953-2.888 3.325-5.617 3.049-6.064-1.134-1.834-10.203 1.174-15.694 5.205-12.054 8.848-18.879 24.177-17.741 39.846.45 6.209 1.317 8.837 4.43 13.437 5.745 8.486 10.358 9.524 13.69 3.08zm61.664-47.766c3.101-3.1 4.027-5.015 4.027-8.328 0-2.386-.67-4.558-1.505-4.878-1.591-.61-41.034 9.29-44.308 11.123-4.082 2.285 12.243 5.705 28.461 5.963 9.077.144 9.394.051 13.325-3.88zm-3.293-22.064c14.342-2.831 21.112-7.708 23.352-16.822l.796-3.236-6.347 2.184c-3.49 1.2-9.798 3.926-14.017 6.056-7.78 3.927-23.705 13.987-23.705 14.974 0 .613 4.197-.052 19.921-3.156zm476.74-2.038c.293-.489-8.091-30.203-18.632-66.031-20.495-69.662-20.055-68.58-26.102-64.16-2.202 1.61-1.668 3.71 15.998 62.995 14.87 49.903 18.86 61.959 21.415 64.707 3.028 3.256 6.211 4.338 7.321 2.489zM286.27 722.454c12.227-5.027 17.768-12.043 15.069-19.078-.948-2.47-7.94-.699-14.053 3.56-4.43 3.085-14.893 16.775-14.893 19.485 0 1.404 2.675.64 13.877-3.967zm-50.327-9.382c11.858-5.936 23.178-12.028 25.156-13.538 4.843-3.698 10.32-13.079 15.321-26.24 2.277-5.992 4.953-12.467 5.946-14.389 1.787-3.456 1.751-3.545-3.355-8.252-5.429-5.003-11.255-8.512-14.136-8.512-.954 0-12.803 17.256-26.708 38.897-21.875 34.042-26.878 42.827-24.39 42.827.333 0 10.307-4.857 22.166-10.793zm221.015-54.597c25.33-29.903 125.679-157.282 132.134-167.726 1.12-1.812-1.435-14.426-2.921-14.426-.61 0-30.286 9.642-65.947 21.425-60.792 20.088-65.107 21.696-69.125 25.761-4.327 4.379-4.94 5.772-34.23 77.77-3.71 9.12-9.833 23.244-13.607 31.387-3.773 8.142-7.534 17.344-8.357 20.449-1.496 5.641-1.495 5.645 2.25 8.486 5.91 4.484 10.644 5.168 32.765 4.732l20.727-.408 6.311-7.45zm-135.285-27.466c-1.963-4.698-3.735-5.454-4.815-2.053-.828 2.61 1.076 8.126 3.882 11.25 1.917 2.133 2.004 2.083 2.353-1.358.2-1.965-.44-5.493-1.42-7.839zm-18.29-21.125c-1.107-1.108-11.066-3.446-11.76-2.76-.172.17 2.493 2.18 5.922 4.469 5.752 3.838 6.266 3.98 6.632 1.82.218-1.287-.14-2.875-.794-3.53zm11.831-20.41c.802-3.015-.679-12.041-3.172-19.328-1.11-3.242-7.01 1.75-10.985 9.294-4.305 8.17-4.415 7.837 3.908 11.85 6.302 3.04 9.09 2.545 10.25-1.815zm321.043-44.159c.248-4.397.01-8.927-.533-10.067-1.185-2.495-7.465-2.826-8.38-.442-1.55 4.042 4.278 18.504 7.459 18.504.551 0 1.205-3.598 1.454-7.995zm19.652-29.464c.198-1.385-.335-4.202-1.184-6.26l-1.544-3.743-1.936 6.623-1.937 6.622 3.121-.361c2.134-.248 3.235-1.159 3.48-2.88zm-17.533-5.772c0-1.629-.44-2.961-.978-2.961s-2.23 1.332-3.76 2.961l-2.781 2.961h3.76c3.22 0 3.76-.424 3.76-2.961zm-8.226-11.098c2.896-1.87 7.05-5.28 9.232-7.58l3.967-4.18-5.347-3.134c-8.91-5.222-8.878-4.907-2.013-19.68 6.577-14.154 9.815-22.505 9.03-23.29-.268-.268-2.982 1.416-6.03 3.743-7.433 5.673-20.105 12.977-26.755 15.421l-5.415 1.99 2.827 10.283c1.555 5.656 3.6 12.455 4.545 15.108 2.143 6.02 7.706 14.718 9.413 14.718.704 0 3.65-1.53 6.546-3.399zm-114.592-26.534c33.095-11.402 60.454-21.01 60.797-21.354.343-.343.035-1.724-.685-3.069-1.226-2.29-2.9-25.041-2.552-34.668.2-5.51 4.436-15.204 6.644-15.204.924 0 3.501 1.6 5.727 3.553 2.226 1.955 4.93 3.554 6.011 3.554 2.18 0 8.975-4.642 8.975-6.13 0-.521-3.864-2.881-8.587-5.246-11.13-5.571-21.544-13.004-27.935-19.937-5.45-5.913-10.824-16.099-10.843-20.552-.03-7.187-7.568-15.688-19.227-21.685-2.425-1.248-6.156-3.997-8.29-6.11l-3.881-3.841-17.766.592c-34.094 1.136-66.632-1.32-95.12-7.182l-11.199-2.304-18.798 10.948c-10.339 6.021-18.636 11.487-18.437 12.146.198.658 6.379 5.727 13.734 11.265 9.145 6.883 13.88 11.278 14.976 13.897 2.18 5.213 11.023 14.448 22.685 23.691 13.63 10.805 15.113 14.92 12.05 33.462l-1.343 8.14 7.651 15.184c4.208 8.35 10.776 23.614 14.594 33.918 5.405 14.588 7.352 18.616 8.794 18.198 1.018-.295 28.93-9.865 62.025-21.266zm-177.152-12.775c.572-4.261.32-4.59-11.065-14.517-6.407-5.586-11.816-9.989-12.02-9.785-.376.376 8.772 44.824 9.878 47.996.861 2.472 12.497-18.402 13.207-23.694zm288.177-18.323c11.409-7.584 19.771-17.207 20.776-23.906 1.054-7.027.08-16.013-2.069-19.08-1.744-2.49-1.848-2.453-12.673 4.547-11.292 7.303-25.166 17.95-29.021 22.272-2.034 2.28-2.058 2.628-.296 4.39 2.16 2.16 2.466 7.529.768 13.45-.74 2.578-.737 4.756.01 6.145 1.11 2.074 1.39 2.07 7.744-.116 3.626-1.248 10.27-4.714 14.765-7.702zm131.903-62.507c2.38-3.455 4.634-8.175 5.01-10.488.796-4.91.144-5.236-12.969-6.497-10.587-1.017-47.58 1.85-45.874 3.555.68.68 5.08 1.39 9.779 1.58 13.933.56 25.926 5.454 34.03 13.885 2.246 2.336 4.446 4.247 4.89 4.247.444 0 2.755-2.827 5.134-6.282zm-112.721-30.177c1.375-1.142 3.144-.951 8.608.929 8.17 2.81 7.847 2.787 10.616.762 2.086-1.524 1.928-2.091-3.213-11.548-2.974-5.469-6.034-12.342-6.801-15.274-4.243-16.214-15.351-23.777-35.037-23.854-5.255-.021-12.907.621-17.004 1.427l-7.448 1.466.659 4.063c1.927 11.876 12.003 23.548 33.31 38.588 11.25 7.94 13.097 8.881 13.784 7.023.437-1.18 1.573-2.792 2.526-3.582zM504.9 280.795c-1.177-2.009-4.649-6.006-7.715-8.882-5.729-5.374-9.482-6.447-14.033-4.01-3.216 1.72-6.404 8.181-4.82 9.766 2.325 2.324 17.309 6.719 23.015 6.75l5.693.03-2.14-3.653z" fill="#141414"/></svg>