<svg version="1" xmlns="http://www.w3.org/2000/svg" width="223.04" height="222.2" viewBox="0 0 223.04 222.2"><path fill-rule="evenodd" clip-rule="evenodd" fill="#EBA62E" d="M21.462 115.636h71.431c8.348 0 15.027 7.05 15.027 15.771v70.131c0 8.721-6.679 15.771-15.027 15.771H21.462c-8.163 0-15.028-7.05-15.028-15.771v-70.131c0-8.721 6.864-15.771 15.028-15.771z"/><linearGradient id="a" gradientUnits="userSpaceOnUse" x1="169.948" y1="111.791" x2="162.326" y2="220.783"><stop offset="0" stop-color="#b7222d"/><stop offset="1" stop-color="#a91826"/></linearGradient><path fill-rule="evenodd" clip-rule="evenodd" fill="url(#a)" d="M130.37 116.192h71.43c8.163 0 15.028 7.051 15.028 15.771v70.132c0 8.719-6.865 15.769-15.028 15.769h-71.43c-8.35 0-15.028-7.05-15.028-15.769v-70.132c0-8.72 6.679-15.771 15.028-15.771z"/><path fill="#FEFEFE" d="M148.923 129.551c0-2.597-.371-5.38 0-7.977.928.742 1.856 1.483 2.783 2.226 1.298.742 2.041 2.041 2.968 3.154.186-.556.371-.927.557-1.485 1.298.929 2.226 2.228 2.968 3.711.185-.741-.185-2.041.742-2.597 1.298 0 1.298 1.669 2.412 2.412.742-.186.927-1.114 1.483-1.485.929.742 1.114 2.227 2.041 3.154.928-.742 1.3-1.855 2.412-2.412 1.671.928 2.598 2.412 4.082 3.339.371-.371.557-.742.929-1.298 1.298 1.114 1.854 2.783 2.968 3.897.556-1.485 2.226-1.856 2.968-3.155 1.114 1.114 2.227 2.412 3.339 3.526.371.556 1.114.556 1.671.741.185.186.371.557.371.742 1.299-.371 1.299-2.041 2.411-2.783 0 .371.186 1.669.742 1.113.929-2.041 1.485-4.453 3.154-5.936.742-.558 2.041-1.3 2.412-.187.371 1.67.927 3.526 2.226 4.638.558 0 .929-.185 1.485-.37 1.114.741.927 2.226 1.67 3.153.557.371 1.669 0 2.041.928.927 1.112.558 2.597.743 3.896.371.556 1.484.187 1.855.928.185 1.113 0 2.227-.186 3.34.742.185 1.485.185 1.856.556 1.298 1.298 2.041 3.154 1.112 4.638l.742.743c0 .928.187 1.856 0 2.783-.371.742-.927 1.298-1.113 2.041.928.743 1.855.927 2.598 1.67.371 1.113.371 2.227.371 3.154-.186 1.669-1.298 2.968-1.856 4.267.187 0 .742.186.929.186.185 1.299 0 2.783-1.114 3.711-1.298 1.484-3.525 1.113-5.195 1.855-.743.372-.928 1.112-1.485 1.67.929.371 1.669.556 2.598.371 1.298-.186 2.412-.929 3.71-.371 0 .556-.557 1.669.185 2.041 1.3.185 2.412-.557 3.71-.557 1.485 1.3 2.041 3.525 2.227 5.381-.742.556-1.669.556-2.412.927-.742.927 0 2.226-.742 3.154-.927.928-2.226 1.112-3.339 1.855-.371.556-.556 1.113-.927 1.484-.371.556-.929.556-1.485.743-1.298.185-1.669 1.483-2.412 2.412-2.041.37-4.267 0-6.307.556-1.485.556-2.783 1.855-4.453 1.484-1.113 0-1.485-.929-1.856-1.671-.556-1.112-2.226-.37-2.783-1.483-.742-1.856 0-3.71-.371-5.566-1.854-1.298-4.453-1.485-6.865-1.485 1.671 3.526 3.34 7.051 4.639 10.762.371.743.742 1.67 1.298 2.412 1.298 2.041 1.113 4.638 2.597 6.679 1.484 2.041 2.041 4.639 3.711 6.68.741 1.112 1.855 2.226 1.855 3.711-.556.742-1.299 1.298-2.226 1.483-.742.186-.929-.556-1.113-1.112-.928-2.227-2.597-3.897-3.155-6.309-.556-2.412-1.669-4.638-2.412-7.05-.556-1.669-1.299-3.339-1.67-5.195-.556-2.226-1.854-4.082-2.783-6.307-.742-1.671-2.041-3.154-3.339-4.639-.927 1.485-2.597 2.968-2.412 4.824.558 2.041 2.968 2.597 3.897 4.453.371.742-.187 1.669-.371 2.412-.558 1.298.556 2.783-.187 4.082-1.298.742-3.153.742-4.267 1.856-.556.556-1.113.927-1.298 1.669-.371.928-.742 2.041-1.67 2.412-.742.741-1.855.556-2.969.741-.742.558-1.298 1.3-2.226 1.3-1.67.556-3.339-.558-4.824-1.3-1.669-.741-3.525-.185-5.009-.927-.743-.371-.929-.927-1.114-1.67-.371-1.484-.186-2.968-.371-4.453.185-.927-.742-1.298-1.114-1.854 0-1.485 1.67-1.856 2.227-2.97.743-1.483 2.041-2.597 2.412-4.082-.928-.742-2.227-.742-3.154-.185-.742 1.112-.742 2.412-1.669 3.339-1.299.927-2.968 1.114-4.453 1.114-.927 0-1.669.371-2.598.371-2.041.185-4.452-.371-5.38-2.227-1.112-1.114-.371-2.597-.742-3.897-.741-1.298-2.597-.741-3.524-1.669-.557-.741-.186-1.67-.186-2.412-.927-.37-2.597.186-2.783-1.112-.37-1.669.371-3.154.186-4.639-.556-.556-1.113-.741-1.484-1.112-.372-.742-.185-1.669-.372-2.412-1.298-.371-2.041-1.669-2.226-2.969.185-1.112.556-2.226.371-3.339h-.927c-1.114-1.669 0-3.525 0-5.195-.929-1.112-2.227-2.041-2.227-3.71-.185-.742.742-.927 1.485-1.112 1.298-.186 2.968-.371 4.453-.186.927.371 1.854.927 2.782 1.113v-1.298c1.485-.742 2.783.371 4.083.556.37-.742.37-1.669.741-2.597-.741-1.67-1.854-3.341-2.041-5.195 1.3-.371 2.599-.556 3.897-.556.742 0 1.298-.743 1.113-1.3 0-1.112-.186-2.041-.557-2.968.371-.185.742-.371.929-.556.185-1.485-.187-3.154 0-4.639.927 0 2.226.927 2.968-.185.556-1.113-.186-2.598.185-3.896.558 0 1.3.371 1.856.557-.186-1.484-.556-2.783-.742-4.082 0-.186 0-.371.186-.371 1.112 0 1.854.927 2.968 1.298l-1.485-1.484c-.185-.743-.371-1.67 0-2.412.559-.003 1.115-.003 1.671-.003z"/><path fill="#A91826" d="M151.15 125.84c1.112.742 1.854 2.041 2.783 2.968 1.298 1.299 2.041 3.154 2.782 4.824 2.227-.927 2.783-3.339 4.268-4.824-.187 2.783-.927 5.752-2.968 7.793.741 1.112 1.483 2.411 1.854 3.524 1.114-2.041 1.485-4.453 1.299-6.865 0-.927.928-1.483 1.484-.927.743.186.743.927.743 1.484 0 2.412-.558 4.824-1.485 7.05-.185.742-.927 1.484-.371 2.227 1.484 3.153 2.412 6.679 3.525 10.204.556-1.485 1.114-2.97 1.114-4.453a103.26 103.26 0 0 1 0-10.761c0-.928.185-1.67.741-2.412 1.485 2.969 1.114 6.494 1.3 9.834 0 3.524-.186 7.421-2.227 10.761.558 1.484 1.67 2.783 2.227 4.453.743 2.041 1.855 3.71 2.968 5.566.927-1.856 1.485-3.896 1.856-5.752.37-1.855 1.298-3.153 1.854-4.823.371-1.671.927-3.154 1.114-4.824.556-3.154.927-6.309 1.483-9.463.371-1.299.371-2.782.557-4.267.185-.556.556-.742.743-1.113.371 1.856.741 3.525.741 5.38-.37 3.525-1.112 7.236-1.483 10.761-.186 1.299-.371 2.412-.927 3.71-.557 1.856-1.856 3.526-2.227 5.38-.556 2.598-1.113 5.195-2.783 7.236a21.84 21.84 0 0 0 1.67 4.453c.742 1.113 1.484 2.412 1.856 3.896 1.298-1.299 2.968-2.227 4.082-3.711.927-1.298 1.854-2.411 2.783-3.71-1.114-1.112-2.227-1.855-3.339-2.783-.742-1.112-.929-2.226-1.485-3.339-.371-1.483-.927-3.154-.556-4.638.927 1.67 1.299 3.711 2.411 5.195.929 1.483 2.599 2.412 3.897 3.524.927-2.226 1.669-4.453 2.412-6.679.556-1.485.742-2.968 1.298-4.268-1.298-1.669-2.783-2.782-4.082-4.453-.743-1.298-1.485-2.782-2.041-4.267-.185-.556 0-1.114 0-1.485 2.227 2.598 4.082 5.195 6.494 7.422.927-2.598 2.227-5.195 2.597-7.979-2.411-.371-4.082-2.597-4.823-4.824-.371-.743-.371-1.485-.187-2.226 1.67 1.483 2.968 3.71 5.009 5.009 1.113-4.268.186-8.906 1.113-13.172.187 0 .372-.187.558-.372.185 2.597.741 5.194.927 7.606 1.114-.742 2.041-2.041 3.339-2.597-.927 2.041-1.485 4.082-3.154 5.566-.741 2.226-.371 4.638-.927 7.05 1.669-1.856 2.597-4.453 4.268-6.309.37-.556.928-.741 1.484-.741-1.299 2.968-2.041 6.308-4.453 8.535-.742.927-1.669 1.483-2.597 1.854-.927 2.227-1.298 4.824-1.855 7.236 3.896-2.783 7.422-6.309 11.504-9.09.37-.187 1.112-.372 1.669-.558-1.113 2.598-3.154 4.453-5.381 6.123-1.854 1.113-3.153 2.783-4.823 4.082-1.3.743-2.412 1.67-3.897 2.227-.927 2.597-1.669 5.195-2.783 7.607 1.856-.558 3.711-1.3 5.38-2.412.929-.557 2.041-1.485 3.525-1.113 2.968-1.67 6.123-3.339 9.277-5.01.742-.37 1.669-.928 2.783-.741 0 .371-.372.741-.743 1.112-2.412 2.969-6.309 3.896-9.462 5.752-2.041 1.112-4.268 2.226-6.494 2.968-1.669.742-3.34 1.669-5.381 1.669-1.112 1.299-2.041 2.968-3.153 4.267-.742.929-1.669 1.485-2.598 2.228 3.154-.372 6.494.556 9.648.371.743-1.856 1.856-3.711 3.897-4.453 1.483-.556 3.153-2.041 5.009-1.669-1.113 1.483-2.412 2.783-4.082 3.71a6.014 6.014 0 0 0-2.783 2.412c2.783-.187 5.751-.371 8.72-.743-.185-1.113.186-2.226 1.3-2.783.927-.371 2.226-1.113 3.153-.371-.927.929-2.041 1.67-2.597 2.783 3.339 0 6.865-1.485 10.019 0-2.227.556-4.268 1.485-6.494 1.856 1.112.741 2.597 1.298 2.968 2.782-1.856-.741-3.71-1.298-5.38-2.597-3.71.556-7.421.927-11.133 1.113.929 1.114 1.671 2.412 2.969 3.154 1.67.928 3.153 2.226 5.009 2.782 1.113.371 2.412.557 2.968 1.856-2.041-.187-4.082-.187-5.937-.927-1.669-.929-3.154-1.856-4.639-2.97-1.112-1.112-1.854-2.597-2.968-3.896-.742-.186-1.484-.186-2.226-.186.927 1.113 2.041 2.041 2.968 3.154 1.298 1.67 1.854 3.71 2.226 5.566-2.412-2.969-5.194-5.566-7.606-8.721-2.598-.371-5.381-.371-7.979.186-.742 1.114-1.484 2.226-2.041 3.524-.556 1.3-1.67 2.041-2.597 3.154 1.112 2.227 2.412 4.639 3.524 6.865.186 1.114.742 2.412-.185 3.34-.927-1.484-2.041-2.782-2.598-4.453-.556-1.298-1.483-2.412-2.226-3.524-.371.556-1.113.927-1.113 1.67.186 1.669.557 3.154.742 4.824.187 2.783-.742 5.565-1.856 8.164-.185.371-.556.556-.927.927 0-1.856.187-3.71.371-5.566 0-2.041-.185-4.082-.185-6.123-.929 1.3-1.856 2.412-3.155 3.154.185 1.485.556 2.783.185 4.268-.371 1.298-.556 2.968-1.483 4.082h-.371c-.186-2.227 0-4.453-.186-6.68-1.855 1.856-3.896 3.896-6.494 4.639 1.484-2.783 3.896-4.824 6.122-7.236-2.041-.371-4.082 0-5.936-.557-.558 0-.742-.37-1.114-.741 1.485-.558 3.155-1.114 4.638-.929 1.671 0 3.154.371 4.639.558.743-.929 1.485-1.856 2.226-2.97-2.597-.741-5.194.558-7.606-.556 1.112-1.113 2.783-1.484 4.267-1.298 1.485 0 2.968.185 4.639.185.741-1.114 1.669-2.226 2.226-3.524.743-.557 1.67-1.113 2.227-2.041.556-.928 1.112-2.041 1.67-3.154-2.227-.371-4.639-.742-6.865-1.484-2.412 1.669-4.824 3.154-7.236 4.824-1.298.927-2.783 1.856-4.268 2.412-2.226.742-4.452 2.041-6.679 2.597-2.041.371-4.267 1.484-6.494.928 2.783-1.671 5.938-2.783 8.906-4.082 1.67-.742 3.526-1.113 5.009-2.041 1.669-1.113 3.525-1.671 5.195-2.783 1.299-.743 2.412-1.67 3.526-2.783-2.783-1.299-6.123-1.485-9.092-2.228-2.041.929-3.896 2.599-6.123 3.155-2.041.557-3.896 1.669-5.937 1.484-1.67 0-3.339.185-4.824-.742 3.154-.742 6.308-.927 9.277-2.041 1.484-.556 2.783-1.484 4.267-2.412-1.855-.557-3.711-1.299-5.38-2.041-2.783-1.298-5.938.371-8.906-.371-1.485-.556-3.154-.556-4.267-1.855l-.186-.186c2.968-.185 5.751.371 8.534 0-1.669-.927-3.154-2.226-4.638-3.339-1.3.556-2.783.742-4.268.742-1.298 0-2.597.185-3.524-.742 1.669-.742 3.339-1.113 5.009-1.298-2.598-1.3-4.453-3.526-5.566-5.938-.371-.372-.185-.928-.185-1.299 2.041 1.67 3.896 3.339 5.937 5.009 1.669.927 3.34 1.484 4.824 2.412-.556-1.485-1.854-3.155-1.298-4.824.927 1.113 1.67 2.227 2.597 3.339.742.929.928 2.412 1.484 3.525 2.041 1.856 4.824 2.783 7.421 3.897-1.112-2.412-2.597-4.639-3.524-7.051 0-.371-.186-1.112.371-1.112 2.226 2.597 4.823 5.38 5.38 9.091 3.153.556 6.494 1.113 9.646 1.669-.927-2.041-2.226-3.896-2.782-6.123 1.483.372 2.226 1.856 3.339 2.968 1.113.929 1.483 2.412 1.669 3.897 3.526 1.484 7.05 2.597 10.761 2.783-.556-2.227-2.226-4.082-3.153-6.309-.371-.927-.557-1.854-1.113-2.597-2.412-.743-4.639-1.67-7.05-2.412-2.598-.927-5.195-2.041-7.978-2.783-3.526-.927-6.679-3.339-9.462-5.937-1.114-1.113-2.412-1.671-3.341-2.783 1.856.743 3.897 1.483 5.753 2.412 2.041 1.298 4.082 3.153 6.494 3.896 2.782.927 5.565 2.041 8.348 2.968 2.041.742 4.082 1.485 6.123 2.042-1.113-2.412-2.226-5.01-3.525-7.422-.37-.742-.556-1.483-.556-2.226-3.154-1.67-6.679-2.598-9.648-4.639-2.412-1.67-5.194-3.339-6.864-5.937-.371-.371-.371-.927-.371-1.484 2.597 1.669 5.194 3.339 7.606 5.195 2.598 2.041 5.751 2.968 8.721 4.267-.558-2.226-1.114-4.452-2.227-6.308-.927-1.114-1.299-2.412-1.854-3.525-2.041 0-4.268-.743-5.938-2.041-1.113-1.114-2.968-1.854-3.525-3.524 2.783 1.112 5.381 2.597 8.35 3.524-.742-1.67-1.669-3.339-2.412-5.009-1.669.185-3.154-.556-4.638-.927-1.3-.557-2.783-.928-3.71-2.227 1.669.187 3.153.743 4.638 1.114.927 0 2.041-.187 2.968-.371-1.114-.928-1.854-2.226-2.226-3.526-.742-1.848-2.227-3.333-2.04-5.374z"/><path fill="#FEFEFE" d="M47.622 121.016c3.71 6.123 7.236 12.431 10.762 18.554h-5.01c-.741 0-1.483.371-2.226.743-1.114.741-2.412 1.483-3.711 2.041.185-7.052.185-14.102.185-21.338zM69.33 140.869c5.194-5.009 10.204-10.02 15.398-15.028-1.855 6.865-3.711 13.729-5.565 20.779-1.485-1.298-2.783-2.783-4.268-4.082-1.855-.742-3.711-1.113-5.565-1.669zM17.936 143.652c6.865 1.855 13.916 3.525 20.78 5.38-1.299 1.485-2.782 2.783-3.896 4.268-.742 1.669-1.114 3.71-1.67 5.565-5.194-5.194-10.203-10.204-15.214-15.213zM56.898 145.136c4.638-.742 9.462 0 13.73 2.041 5.195 2.597 9.277 7.05 11.318 12.616 3.153 7.977 1.112 17.81-5.01 23.933-3.339 3.526-7.792 5.938-12.616 6.68-5.009.927-10.389.185-14.842-2.227-5.195-2.597-9.277-7.235-11.133-12.616-1.483-3.896-1.67-8.349-.927-12.245 1.114-5.195 3.897-9.833 7.792-12.988 3.34-2.782 7.422-4.638 11.688-5.194zM85.842 155.154c7.236 0 14.472.187 21.522.187-6.123 3.524-12.43 7.05-18.554 10.76 0-2.041.186-3.897-.185-5.938-.743-1.669-1.856-3.339-2.783-5.009zM13.112 180.387c6.123-3.71 12.431-7.236 18.554-10.76 0 1.854 0 3.896.186 5.751.741 1.669 1.854 3.339 2.782 5.009H13.112zM87.326 176.862a586.607 586.607 0 0 1 15.213 15.213c-6.865-1.856-13.915-3.71-20.78-5.38 1.299-1.485 2.783-2.783 3.897-4.268.743-1.854 1.113-3.71 1.67-5.565zM41.314 189.107l2.968 2.968c.556.556 1.114 1.114 1.856 1.298 1.67.372 3.339.928 5.009 1.299-5.195 5.01-10.204 10.019-15.4 15.028 1.857-6.864 3.711-13.727 5.567-20.593zM68.03 195.973c1.671-.743 3.341-1.856 5.01-2.783-.186 7.235-.186 14.286-.186 21.335-3.71-6.123-7.236-12.245-10.76-18.368 1.854 0 3.895 0 5.936-.184z"/><path fill-rule="evenodd" clip-rule="evenodd" fill="#009640" d="M130.555 6.728H201.8c8.35 0 15.214 7.236 15.214 15.771v70.317c0 8.535-6.865 15.584-15.214 15.584h-71.245c-8.349 0-15.213-7.05-15.213-15.584V22.498c0-8.534 6.865-15.77 15.213-15.77z"/><path fill-rule="evenodd" clip-rule="evenodd" fill="#005394" d="M21.277 6.914h71.429c8.163 0 15.028 7.05 15.028 15.771v70.131c0 8.72-6.865 15.771-15.028 15.771H21.277c-8.35 0-15.028-7.051-15.028-15.771V22.685c0-8.721 6.678-15.771 15.028-15.771z"/><path fill="#FEFEFE" d="M58.012 17.489c2.226-1.485 4.453-2.968 6.865-4.639.556.929 1.112 1.856 1.67 2.783-2.227 1.485-4.268 2.783-6.494 4.268 0 3.339.185 6.679.185 10.018 3.154-1.67 6.123-3.339 9.092-5.009.556 1.114 1.112 2.227 1.67 3.525-2.412 1.114-4.639 2.412-6.865 3.524 0 2.598.185 5.195.185 7.793 2.041 1.112 3.897 2.411 5.938 3.71 2.412-1.113 4.638-2.412 7.05-3.525v-7.05h3.526c0 3.153 0 6.308.185 9.462 2.598-1.485 5.195-2.968 7.792-4.638.371-.187.742-.372.742-.743.186-2.041.186-4.082.371-6.309 1.114.186 2.227.186 3.339.371-.185 2.412-.37 5.009-.741 7.607a139.566 139.566 0 0 1 7.606 3.524c-.556.929-1.112 1.856-1.483 2.97-2.412-1.299-4.639-2.412-7.051-3.71-2.783 1.854-5.565 3.524-8.534 5.38 2.969 1.67 5.938 3.526 8.906 5.195-.742 1.112-1.484 2.226-2.226 3.153-2.227-1.299-4.453-2.782-6.494-4.082-2.227 1.3-4.453 2.783-6.68 4.082-.185 2.412 0 4.824-.185 7.236 2.226 1.485 4.267 2.783 6.494 4.082 2.041-1.113 4.082-2.226 6.123-3.524.556 1.112 1.114 2.041 1.67 3.153-2.597 1.485-5.38 3.154-8.163 4.824 2.968 1.485 5.751 3.154 8.719 4.824 2.041-.928 3.897-2.041 5.938-2.968.371.927.927 2.041 1.485 3.154-2.412.927-4.639 2.041-7.051 3.153.371 2.783.557 5.566.742 8.163-1.114.187-2.226.187-3.339.187 0-2.599-.186-5.195-.371-7.792-2.783-1.485-5.751-3.154-8.719-4.639 0 3.339 0 6.865-.186 10.204-1.299-.185-2.597-.185-3.896-.371 0-2.597.371-5.194.371-7.792-2.227-1.112-4.639-2.412-6.865-3.524-2.041 1.112-4.268 2.226-6.309 3.524-.185 2.412-.371 5.01-.371 7.607 2.041 1.113 4.082 2.412 6.123 3.525-.556 1.112-1.299 2.041-1.855 2.968-2.783-1.485-5.381-3.155-8.163-4.639v10.019c1.854 1.114 3.71 2.412 5.565 3.526-.556.927-1.299 1.854-1.855 2.783-2.041-1.485-4.268-2.783-6.309-4.268-2.226 1.485-4.453 3.154-6.678 4.639-.742-.929-1.299-1.856-1.856-2.783 2.041-1.299 4.268-2.783 6.494-4.082 0-3.525-.185-6.865-.185-10.204-3.155 1.854-6.123 3.524-9.092 5.194-.556-1.298-1.112-2.412-1.483-3.71 2.226-1.113 4.453-2.226 6.865-3.524-.186-2.412-.186-4.824-.371-7.422.185-.371-.371-.556-.742-.741-1.856-1.114-3.71-2.412-5.751-3.341-2.041 1.299-4.453 2.227-6.494 3.711v6.865H33.34v-9.462c-2.968 1.669-5.751 3.339-8.719 5.009 0 2.227-.186 4.453-.186 6.68-1.299-.187-2.412-.187-3.524-.371.185-2.412.556-5.009.741-7.607a138.837 138.837 0 0 1-7.606-3.525c.556-.927 1.112-1.855 1.67-2.968 2.226 1.298 4.453 2.412 6.865 3.71 2.783-1.854 5.751-3.524 8.535-5.38-2.969-1.669-5.938-3.525-8.906-5.195.742-1.112 1.483-2.041 2.226-3.153 2.227 1.483 4.453 2.782 6.494 4.267 2.227-1.485 4.453-2.783 6.68-4.267 0-2.412 0-5.01-.186-7.422l-6.122-3.896c-2.041 1.112-4.082 2.412-6.123 3.524-.556-1.112-1.114-2.041-1.67-3.153 2.597-1.484 5.38-3.154 8.163-4.824-2.968-1.485-5.751-3.154-8.719-4.824-1.856 1.114-3.897 2.041-5.938 2.968a21.977 21.977 0 0 0-1.485-2.968c2.412-1.113 4.639-2.227 7.051-3.339-.371-2.783-.557-5.38-.742-8.163 1.114 0 2.226-.187 3.339-.187 0 2.598.186 5.195.186 7.792 2.968 1.484 5.937 3.154 8.905 4.824 0-3.524.186-7.05.186-10.389 1.298.185 2.597.371 3.896.371 0 2.597-.37 5.194-.37 7.792a124.04 124.04 0 0 1 6.864 3.71c2.227-1.298 4.268-2.412 6.494-3.71 0-2.412 0-5.01.186-7.607-2.041-1.113-4.082-2.412-6.123-3.525.556-.927 1.299-2.041 1.855-2.968 2.783 1.485 5.381 3.154 8.163 4.639V19.53c-1.855-1.114-3.71-2.412-5.565-3.526.556-.927 1.299-1.854 1.855-2.783 2.22 1.485 4.261 2.97 6.302 4.268z"/><path fill="#005394" d="M56.714 32.331c0-1.112 1.854-.927 2.041 0 0 2.783-.186 5.382-.371 7.979 4.638 2.968 9.462 5.937 14.1 8.906 2.227-1.298 4.453-2.783 6.865-3.896.929-.372 1.856 1.298.929 1.855-2.412 1.299-4.639 2.597-7.051 3.896-.185 5.382-.371 10.576-.556 15.771 2.226 1.298 4.453 2.597 6.678 4.082.742.186.929 1.113.371 1.669-.556.558-1.299.187-1.67-.185-2.226-1.114-4.267-2.412-6.308-3.711-4.824 2.597-9.463 5.009-14.287 7.606v7.422c-.185.556-.185 1.112-.37 1.483-.371.743-1.856.558-1.856-.556 0-2.783.185-5.566.185-8.35a475.963 475.963 0 0 0-12.616-7.978c-2.412 1.299-4.823 2.783-7.235 3.896-.557.558-1.3 0-1.3-.742-.185-.741.557-1.112 1.114-1.298 1.67-1.112 3.526-2.041 5.38-2.968.186-5.751.371-11.318.557-16.883-2.041-1.114-4.082-2.412-6.122-3.712-.742-.371-.371-1.854.556-1.854.556.185 1.114.556 1.67.742l4.453 2.782 14.472-7.792c.184-2.598.184-5.381.371-8.164z"/><path fill="#FEFEFE" d="M43.355 49.771c4.824-2.412 9.462-5.009 14.286-7.421 4.453 2.783 9.091 5.566 13.543 8.535-.184 5.195-.371 10.575-.556 15.956-4.639 2.597-9.462 5.009-14.101 7.607-4.638-2.783-9.091-5.751-13.73-8.535.187-5.38.372-10.761.558-16.142z"/><path fill="#005394" d="M47.25 52.37c3.341-1.856 6.68-3.711 9.834-5.566 3.339 2.041 6.492 3.896 9.647 5.751v11.318c-3.339 1.854-6.679 3.71-9.833 5.565a269.422 269.422 0 0 0-9.833-5.751c.185-3.896.185-7.607.185-11.317z"/><path fill="#FEFEFE" d="M140.203 15.819c.927-.371 1.854-1.669 2.968-1.113.742.371 1.856.742 1.669 1.669-.185 1.114-1.483 1.114-2.041 1.67a2.85 2.85 0 0 0 0 2.968c.927 1.484 2.412 2.598 3.896 3.154.556.186 1.114-.185 1.299-.743 0-.927-1.114-1.854-.556-2.782.741-1.3 2.782-.742 2.782.741-.185 1.113-1.298 2.041-1.112 3.34-.186 1.67 1.298 3.153 2.783 3.153 1.112-.185.741-1.483.556-2.412-.742-1.112.927-2.412 2.041-1.854.556.185.927 1.113.556 1.483-.556 1.3-1.299 2.227-1.483 3.525-.372 1.299.556 2.412 1.669 2.783.927.371 1.483-.742 1.483-1.484.187-.741-.185-1.855.558-2.226 1.112-.556 2.597.742 2.226 1.856-.742.741-1.854 1.112-2.226 2.411-.371 1.3.371 2.598 1.298 3.525 3.525 3.897 5.938 8.535 7.792 13.359 1.485 3.71 2.227 7.792 1.67 11.874-1.114 2.227-4.638 1.856-5.751-.185-1.113-2.412-1.113-5.195-1.485-7.792-1.112-6.865-3.153-13.916-7.05-19.852-.371-.371-.927-.929-1.484-.742-1.299.185-2.041 1.484-3.339 1.854-1.112 0-1.855-1.483-1.112-2.411.927-.929 2.411-.929 3.71-.372.556-2.412-2.969-4.639-4.824-2.783-.742.556-1.856 1.299-2.969.743-.556-.558-.741-1.485-.185-2.227 1.114-.927 2.783.927 3.71-.185.187-1.3-1.113-2.227-2.226-2.783-1.3-.371-2.412-1.114-3.71-.742-1.485.742-1.485 3.154-3.154 3.71-1.114-.185-1.485-1.114-1.856-2.041-.372-1.298-1.67-2.412-1.855-3.896 0-.741.741-.928 1.299-1.299.185-1.298.185-2.597.927-3.71 1.114-.926 2.599.744 3.526-.184zM184.359 23.612c3.897-1.485 8.535 1.854 8.535 5.938 0 1.483-.741 2.597-.556 3.896.742 2.041 2.783 3.154 3.525 5.195.371 1.483-.557 2.783-1.113 4.082-1.856 3.154-5.38 4.267-8.535 5.195-4.824 1.298-8.721 4.638-12.06 7.977-.371-.556-.742-1.298-.371-1.854 1.113-2.227 3.154-3.71 4.453-5.753 1.298-2.411 3.71-4.452 4.082-7.421.187-1.298-.371-2.597-1.298-3.71-1.113 0-2.226 0-3.154.558-2.041 1.483-2.968 3.71-4.267 5.565-1.856 2.227-1.485 5.38-2.783 7.979-.185.371-.371.556-.927.371-.743-.371-.927-1.298-1.114-2.227-1.298-4.638-1.856-9.833-.742-14.842.742-3.339 2.598-6.68 5.195-9.092.556-.371 1.298-.741 2.041-.927 2.041-.185 4.082 1.113 6.308.742 1.112-.189 1.669-1.487 2.781-1.672z"/><path fill="#FEFEFE" d="M132.967 36.599c2.968-1.298 6.123-2.598 9.462-2.041 2.041.185 3.525 1.484 5.01 2.597 6.123 3.896 10.389 10.762 11.131 17.997-3.896-1.67-5.009-6.308-8.35-8.535-1.298-1.112-3.153-1.67-4.638-.741-1.856 1.483-1.485 4.638.556 5.751 1.484.927 2.783 2.226 4.268 3.154 1.67.927 3.526 1.854 4.638 3.524.557 1.113.371 2.412-.556 3.154-2.597.185-5.38-.556-7.979.371-1.112.371-1.854 1.483-1.67 2.597-.185 1.298.743 2.227 1.299 3.339.186 1.669-.741 2.969-1.299 4.268-.371.743-.742 1.67 0 2.412 1.114 1.299 3.155 1.114 4.453.371 2.783-1.484 4.082-4.639 6.68-6.123.741-.371 1.67-.742 2.411-.186-.37 1.298-1.483 2.041-2.411 2.968-4.453 3.896-5.938 9.648-9.834 13.729-1.299 1.299-2.597 2.228-4.267 2.97a4.537 4.537 0 0 1-2.227 0c-3.153-.742-5.937-2.97-9.091-3.897-2.968-.185-5.38-3.154-5.751-6.123 0-2.226 1.298-4.453 2.783-6.123.927-1.298 2.226-2.783 1.854-4.453-.185-1.298-1.669-2.041-1.854-3.339-.371-1.856.371-3.525 1.483-4.824 1.3-1.669 3.341-2.597 5.381-2.783 5.565-.371 10.576 2.597 16.141 2.412 0-1.298-.556-2.783-1.669-3.339-2.783-1.298-5.751-.927-8.535-.927-3.896 0-8.164.185-11.688-2.041-1.114-.742-2.599-1.855-2.412-3.525.556-2.041 2.597-2.969 3.339-5.01.556-1.112-.558-1.854-1.114-2.782-1.298-1.3-1.113-3.71.371-4.824 1.117-.925 2.786-.555 4.085.002zM186.771 51.256c4.268-1.299 8.906-1.299 12.802.556 1.67.928 3.153 2.227 3.339 4.082.372 1.114-.371 2.041-.556 3.154 0 .927.928 1.485 1.67 1.67 2.041.371 4.453.371 5.936 2.041 1.485 1.67 3.155 4.082 2.227 6.494-.928 2.968-3.896 4.638-6.494 6.123-.186 1.856-.742 3.711-2.412 4.824-2.599 1.856-6.309 1.67-8.906-.185-3.526-2.412-6.494-5.566-10.205-7.979-1.298-.927-2.598-2.041-4.268-2.598-2.412-.927-5.38-1.298-7.421-3.339 3.155-1.298 6.494-.556 9.648.371 2.412.743 4.638 1.67 7.05 2.412.927.371 2.041 0 2.598-.927.927-1.485.185-3.71-1.485-4.639-.742-.556-1.856-.185-2.783-.37-.742.185-1.484-.558-1.298-1.114 0-1.298.742-2.227 1.485-3.154-.743-.742-1.485-1.298-2.412-1.485-2.598-.37-5.195.558-7.793 1.3-1.854.556-3.153 2.226-4.823 2.968 0-.371 0-.927.371-1.298 3.897-3.898 8.35-7.422 13.73-8.907zM170.816 68.696c5.38 1.299 10.575 3.339 15.028 6.494 2.597 1.669 4.453 4.082 5.751 6.865.742 1.483 1.113 3.153.742 4.823-.742 2.412-2.597 4.639-3.71 6.865-1.114 1.485-.743 3.526-1.856 5.01-2.597 4.082-8.348 5.38-12.801 3.71-2.783-1.113-4.453-4.082-7.421-5.01-.558-.185-1.3-.185-2.041 0-3.712 1.3-8.35.743-11.318-2.226-1.484-1.485-2.227-3.71-2.227-5.938-.185-3.339.743-6.679 2.227-9.833 1.67-3.339 4.082-6.494 7.236-8.72.741-.557 1.669-1.113 2.782-.742.558.371.371 1.113.371 1.483-.185 1.485-1.112 2.598-2.041 3.712-1.299 1.669-1.299 4.082-.371 6.123.557.927 1.484 1.854 2.783 1.483 1.484-.185 2.227-1.67 3.71-2.412 1.3 1.485.928 3.712 1.669 5.566.743 1.113 1.856 2.412 3.341 2.412 2.412 0 4.267-2.412 3.71-4.638-.371-1.113-1.485-1.855-1.856-2.969 0-.556-.185-1.112.186-1.298.928-.927 2.412-1.114 3.153-1.855.371-1.113 0-2.227-.741-2.969-1.671-1.669-3.896-2.226-5.195-3.71-.555-.742-.74-1.484-1.111-2.226z"/></svg>